<svg width="21" height="21" viewBox="0 0 21 21" fill="none" xmlns="http://www.w3.org/2000/svg">
<path d="M0.596643 1.3093C0.596643 1.11991 0.671876 0.938281 0.805793 0.804364C0.939709 0.670448 1.12134 0.595215 1.31072 0.595215H1.93626C2.97453 0.595215 3.57151 1.27074 3.91712 1.94483C4.15277 2.40613 4.32272 2.96882 4.46411 3.45725H19.167C19.3877 3.45732 19.6054 3.50852 19.8029 3.60685C20.0005 3.70517 20.1726 3.84793 20.3057 4.02394C20.4388 4.19995 20.5293 4.40441 20.5701 4.62128C20.611 4.83815 20.601 5.06152 20.5409 5.27388L18.4044 12.8074C18.2345 13.4051 17.8742 13.9311 17.3784 14.3056C16.8825 14.6801 16.278 14.8826 15.6566 14.8826H8.40298C7.77641 14.8828 7.16715 14.677 6.66907 14.2968C6.17099 13.9167 5.81173 13.3833 5.64663 12.7789L4.72975 9.41555C4.72449 9.40048 4.71973 9.38524 4.71547 9.36985L3.24303 4.37556L3.10021 3.89427C2.9574 3.40013 2.83172 2.96311 2.6432 2.59607C2.41612 2.15334 2.20761 2.02481 1.93483 2.02481H1.3093C1.11991 2.02481 0.938281 1.94957 0.804364 1.81566C0.670448 1.68174 0.595215 1.50011 0.595215 1.31072L0.596643 1.3093ZM6.09221 8.98425L7.02481 12.4061C7.10749 12.7082 7.28718 12.9747 7.53621 13.1647C7.78523 13.3546 8.08979 13.4574 8.40298 13.4573H15.6581C15.9686 13.4569 16.2706 13.3554 16.5182 13.1681C16.7659 12.9807 16.9457 12.7177 17.0305 12.419L19.167 4.88542H4.88542L6.09221 8.98282V8.98425Z" fill="white"/>
<path d="M10.5982 18.4528C10.5982 19.021 10.3725 19.5658 9.97076 19.9676C9.56901 20.3693 9.02413 20.595 8.45597 20.595C7.88781 20.595 7.34292 20.3693 6.94117 19.9676C6.53942 19.5658 6.31372 19.021 6.31372 18.4528C6.31372 17.8846 6.53942 17.3397 6.94117 16.938C7.34292 16.5362 7.88781 16.3105 8.45597 16.3105C9.02413 16.3105 9.56901 16.5362 9.97076 16.938C10.3725 17.3397 10.5982 17.8846 10.5982 18.4528ZM9.17005 18.4528C9.17005 18.2634 9.09482 18.0818 8.9609 17.9479C8.82698 17.8139 8.64535 17.7387 8.45597 17.7387C8.26658 17.7387 8.08495 17.8139 7.95103 17.9479C7.81712 18.0818 7.74188 18.2634 7.74188 18.4528C7.74188 18.6422 7.81712 18.8238 7.95103 18.9577C8.08495 19.0916 8.26658 19.1669 8.45597 19.1669C8.64535 19.1669 8.82698 19.0916 8.9609 18.9577C9.09482 18.8238 9.17005 18.6422 9.17005 18.4528Z" fill="white"/>
<path d="M17.7391 18.4528C17.7391 19.021 17.5134 19.5658 17.1116 19.9676C16.7099 20.3693 16.165 20.595 15.5968 20.595C15.0287 20.595 14.4838 20.3693 14.082 19.9676C13.6803 19.5658 13.4546 19.021 13.4546 18.4528C13.4546 17.8846 13.6803 17.3397 14.082 16.938C14.4838 16.5362 15.0287 16.3105 15.5968 16.3105C16.165 16.3105 16.7099 16.5362 17.1116 16.938C17.5134 17.3397 17.7391 17.8846 17.7391 18.4528ZM16.3109 18.4528C16.3109 18.2634 16.2357 18.0818 16.1018 17.9479C15.9678 17.8139 15.7862 17.7387 15.5968 17.7387C15.4074 17.7387 15.2258 17.8139 15.0919 17.9479C14.958 18.0818 14.8828 18.2634 14.8828 18.4528C14.8828 18.6422 14.958 18.8238 15.0919 18.9577C15.2258 19.0916 15.4074 19.1669 15.5968 19.1669C15.7862 19.1669 15.9678 19.0916 16.1018 18.9577C16.2357 18.8238 16.3109 18.6422 16.3109 18.4528Z" fill="white"/>
</svg>
