<svg width="24" height="24" viewBox="0 0 24 24" fill="none" xmlns="http://www.w3.org/2000/svg">
<g clip-path="url(#clip0_523_2964)">
<path d="M23.9537 13.1085C23.7382 10.9411 22.7699 8.89773 21.2271 7.35481C19.9085 6.03634 18.2947 5.18906 16.5966 4.81232V3.6213C17.2902 3.44875 17.8057 2.82095 17.8057 2.07473C17.8057 1.19591 17.0908 0.480957 16.2119 0.480957H12.8369C11.958 0.480957 11.2431 1.19591 11.2431 2.07473C11.2431 2.8209 11.7586 3.44871 12.4522 3.6213V4.81565C10.7592 5.19398 9.15075 6.04009 7.83598 7.35486C7.54826 7.64259 7.28294 7.94442 7.04008 8.25811C7.02831 8.25722 7.01655 8.25633 7.00455 8.25633H3.66414C3.40529 8.25633 3.19538 8.46619 3.19538 8.72509C3.19538 8.98398 3.40529 9.19384 3.66414 9.19384H6.40224C6.05855 9.76924 5.78142 10.3735 5.57048 10.9956H0.468757C0.20991 10.9956 0 11.2054 0 11.4643C0 11.7232 0.20991 11.9331 0.468757 11.9331H5.30558C5.17049 12.5261 5.09295 13.1296 5.07294 13.7348H3.00005C2.7412 13.7348 2.53129 13.9447 2.53129 14.2036C2.53129 14.4625 2.7412 14.6724 3.00005 14.6724H5.08789C5.12746 15.2791 5.225 15.8827 5.38058 16.4741H2.34379C2.08494 16.4741 1.87503 16.684 1.87503 16.9429C1.87503 17.2018 2.08494 17.4116 2.34379 17.4116H5.67975C6.1396 18.6281 6.85825 19.7683 7.83598 20.746C9.38035 22.2904 11.4258 23.2589 13.5955 23.4733C13.9052 23.5038 14.2151 23.519 14.5245 23.519C16.3537 23.519 18.1597 22.9896 19.692 21.9917C19.909 21.8504 19.9703 21.56 19.829 21.3431C19.6878 21.1262 19.3974 21.0648 19.1804 21.2061C15.8261 23.3903 11.3339 22.9181 8.4989 20.0831C5.1725 16.7567 5.1725 11.3443 8.4989 8.01783C11.8252 4.69148 17.2377 4.69148 20.5641 8.01783C23.3954 10.8491 23.8702 15.3375 21.6932 18.6902C21.5521 18.9073 21.6139 19.1976 21.831 19.3386C22.0482 19.4796 22.3384 19.4179 22.4794 19.2007C23.6426 17.4094 24.1662 15.2458 23.9537 13.1085ZM12.1806 2.07478C12.1806 1.7129 12.475 1.41852 12.8369 1.41852H16.2119C16.5738 1.41852 16.8682 1.7129 16.8682 2.07478C16.8682 2.43666 16.5738 2.73104 16.2119 2.73104H16.1278H12.9209H12.8369C12.475 2.73104 12.1806 2.43661 12.1806 2.07478ZM13.3897 4.65449V3.66855H15.6591V4.6528C14.9055 4.56318 14.1431 4.56374 13.3897 4.65449Z" fill="#2E8C83"/>
<path d="M20.8958 19.9453C20.772 19.9453 20.6515 19.9955 20.5644 20.0827C20.4767 20.1698 20.427 20.2908 20.427 20.4141C20.427 20.5374 20.4767 20.6583 20.5644 20.7455C20.6515 20.8331 20.7721 20.8828 20.8958 20.8828C21.019 20.8828 21.1395 20.8331 21.2272 20.7455C21.3144 20.6583 21.3645 20.5374 21.3645 20.4141C21.3645 20.2908 21.3144 20.1698 21.2272 20.0827C21.1395 19.9955 21.019 19.9453 20.8958 19.9453Z" fill="#2E8C83"/>
<path d="M14.5316 6.77881C10.5219 6.77881 7.25977 10.0409 7.25977 14.0506C7.25977 18.0603 10.5219 21.3224 14.5316 21.3224C18.5412 21.3224 21.8033 18.0603 21.8033 14.0506C21.8033 10.0409 18.5412 6.77881 14.5316 6.77881ZM14.5316 20.3849C11.0388 20.3849 8.19728 17.5433 8.19728 14.0506C8.19728 10.5579 11.0388 7.71632 14.5316 7.71632C18.0243 7.71632 20.8658 10.5579 20.8658 14.0506C20.8658 17.5433 18.0243 20.3849 14.5316 20.3849Z" fill="#2E8C83"/>
<path d="M17.4966 10.4224L15.1749 12.7442C14.9807 12.6481 14.7623 12.5939 14.5315 12.5939C14.3006 12.5939 14.0822 12.6481 13.8881 12.7442L12.849 11.7051C12.6659 11.522 12.3691 11.522 12.186 11.7051C12.0029 11.8881 12.0029 12.1849 12.186 12.368L13.2251 13.4071C13.129 13.6012 13.0749 13.8196 13.0749 14.0505C13.0749 14.8537 13.7283 15.5071 14.5315 15.5071C15.3347 15.5071 15.9881 14.8537 15.9881 14.0505C15.9881 13.8196 15.9338 13.6012 15.8378 13.4071L18.0914 11.1535L18.1596 11.0854C18.3426 10.9023 18.3426 10.6055 18.1596 10.4224C17.9765 10.2394 17.6798 10.2394 17.4966 10.4224ZM14.5315 14.5696C14.2452 14.5696 14.0124 14.3368 14.0124 14.0505C14.0124 13.7643 14.2452 13.5314 14.5315 13.5314C14.8177 13.5314 15.0506 13.7643 15.0506 14.0505C15.0506 14.3368 14.8177 14.5696 14.5315 14.5696Z" fill="#2E8C83"/>
<path d="M19.5434 13.5874H19.1091C18.8503 13.5874 18.6404 13.7973 18.6404 14.0562C18.6404 14.3151 18.8503 14.5249 19.1091 14.5249H19.5434C19.8023 14.5249 20.0122 14.3151 20.0122 14.0562C20.0122 13.7973 19.8023 13.5874 19.5434 13.5874Z" fill="#2E8C83"/>
<path d="M9.95392 13.5757H9.51966C9.26081 13.5757 9.0509 13.7855 9.0509 14.0444C9.0509 14.3033 9.26081 14.5132 9.51966 14.5132H9.95392C10.2128 14.5132 10.4227 14.3033 10.4227 14.0444C10.4227 13.7855 10.2128 13.5757 9.95392 13.5757Z" fill="#2E8C83"/>
<path d="M14.5372 9.9416C14.7961 9.9416 15.006 9.73173 15.006 9.47284V9.03858C15.006 8.77969 14.7961 8.56982 14.5372 8.56982C14.2784 8.56982 14.0685 8.77969 14.0685 9.03858V9.47284C14.0685 9.73173 14.2784 9.9416 14.5372 9.9416Z" fill="#2E8C83"/>
<path d="M14.5258 18.1592C14.2669 18.1592 14.057 18.369 14.057 18.6279V19.0622C14.057 19.3211 14.2669 19.531 14.5258 19.531C14.7846 19.531 14.9945 19.3211 14.9945 19.0622V18.6279C14.9945 18.369 14.7846 18.1592 14.5258 18.1592Z" fill="#2E8C83"/>
<path d="M0.468757 16.4741C0.345474 16.4741 0.224535 16.5243 0.137346 16.6115C0.050157 16.6987 0 16.8196 0 16.9429C0 17.0666 0.0501102 17.1871 0.137346 17.2743C0.224582 17.3615 0.345474 17.4116 0.468757 17.4116C0.592041 17.4116 0.71298 17.3615 0.800122 17.2743C0.887311 17.1871 0.937515 17.0662 0.937515 16.9429C0.937515 16.8196 0.887358 16.6987 0.800122 16.6115C0.71298 16.5243 0.592041 16.4741 0.468757 16.4741Z" fill="#2E8C83"/>
</g>
<defs>
<clipPath id="clip0_523_2964">
<rect width="24" height="24" fill="white"/>
</clipPath>
</defs>
</svg>
