<svg width="24" height="24" viewBox="0 0 24 24" fill="none" xmlns="http://www.w3.org/2000/svg">
<path d="M21.4013 10.3512C21.5973 10.3512 21.7561 10.1924 21.7561 9.99633V2.27981C21.7561 1.02281 20.7335 0.000140625 19.4764 0.000140625C18.6653 0.000140625 5.48253 0 4.76979 0C3.3769 0 2.24365 1.1332 2.24365 2.52614V23.0212C2.24365 23.5609 2.68273 24 3.2225 24H16.904C17.4437 24 17.8828 23.561 17.8828 23.0212V16.6343H20.8726C21.3598 16.6343 21.7562 16.2379 21.7562 15.7507V11.4158C21.7562 11.2198 21.5974 11.0609 21.4014 11.0609C21.2053 11.0609 21.0465 11.2198 21.0465 11.4158V15.7507C21.0465 15.8465 20.9685 15.9245 20.8726 15.9245H17.8828C17.8827 15.3529 17.8811 3.32058 17.8809 2.27986C17.8809 1.52325 18.419 0.889922 19.1326 0.742359C20.1439 0.533906 21.0465 1.2968 21.0465 2.27986V9.99638C21.0464 10.1923 21.2053 10.3512 21.4013 10.3512ZM17.3488 1.39762C17.0898 2.01262 17.1719 1.71398 17.1711 16.2794C17.1711 16.2873 17.173 23.013 17.173 23.0212C17.173 23.1696 17.0523 23.2903 16.9039 23.2903H3.22245C3.07404 23.2903 2.95339 23.1696 2.95339 23.0212V2.52614C2.95339 1.52456 3.76821 0.709734 4.76979 0.709734H17.7986C17.616 0.901875 17.4577 1.1393 17.3488 1.39762Z" fill="#2E8C83"/>
<path d="M5.7799 2.93827C5.1139 2.93827 4.57202 3.48009 4.57202 4.14609C4.57202 4.81209 5.1139 5.35392 5.7799 5.35392C6.4459 5.35392 6.98772 4.81209 6.98772 4.14609C6.98772 3.48009 6.4459 2.93827 5.7799 2.93827ZM5.7799 4.64419C5.50526 4.64419 5.2818 4.42074 5.2818 4.14609C5.2818 3.87145 5.50521 3.648 5.7799 3.648C6.05458 3.648 6.27799 3.87145 6.27799 4.14609C6.27799 4.42074 6.05449 4.64419 5.7799 4.64419Z" fill="#2E8C83"/>
<path d="M9.23333 3.79125H8.55167C8.35564 3.79125 8.19678 3.95011 8.19678 4.14614C8.19678 4.34217 8.35564 4.50103 8.55167 4.50103H9.23333C9.42936 4.50103 9.58822 4.34217 9.58822 4.14614C9.58822 3.95006 9.42936 3.79125 9.23333 3.79125Z" fill="#2E8C83"/>
<path d="M15.479 3.79125H10.6527C10.4567 3.79125 10.2979 3.95011 10.2979 4.14614C10.2979 4.34217 10.4567 4.50103 10.6527 4.50103H15.4789C15.6749 4.50103 15.8338 4.34217 15.8338 4.14614C15.8338 3.95006 15.675 3.79125 15.479 3.79125Z" fill="#2E8C83"/>
<path d="M5.77985 6.89067C5.11385 6.89067 4.57202 7.4325 4.57202 8.0985C4.57202 8.7645 5.11385 9.30633 5.77985 9.30633C6.44585 9.30633 6.98768 8.7645 6.98768 8.0985C6.98768 7.4325 6.44585 6.89067 5.77985 6.89067ZM5.77985 8.59664C5.50516 8.59664 5.28176 8.37319 5.28176 8.09855C5.28176 7.8239 5.50521 7.60045 5.77985 7.60045C6.05449 7.60045 6.27794 7.8239 6.27794 8.09855C6.27794 8.37319 6.05444 8.59664 5.77985 8.59664Z" fill="#2E8C83"/>
<path d="M15.479 7.74361H8.55167C8.35564 7.74361 8.19678 7.90247 8.19678 8.09845C8.19678 8.29448 8.35564 8.45334 8.55167 8.45334H15.479C15.6751 8.45334 15.8339 8.29448 15.8339 8.09845C15.8339 7.90247 15.6751 7.74361 15.479 7.74361Z" fill="#2E8C83"/>
<path d="M5.77985 10.843C5.11385 10.843 4.57202 11.3849 4.57202 12.0509C4.57202 12.7169 5.11385 13.2587 5.77985 13.2587C6.44585 13.2587 6.98768 12.7169 6.98768 12.0509C6.98768 11.3849 6.44585 10.843 5.77985 10.843ZM5.77985 12.549C5.50516 12.549 5.28176 12.3256 5.28176 12.051C5.28176 11.7763 5.50521 11.5529 5.77985 11.5529C6.05449 11.5529 6.27794 11.7763 6.27794 12.051C6.27794 12.3256 6.05444 12.549 5.77985 12.549Z" fill="#2E8C83"/>
<path d="M15.479 11.696H14.7973C14.6012 11.696 14.4424 11.8549 14.4424 12.0509C14.4424 12.2469 14.6012 12.4058 14.7973 12.4058H15.479C15.675 12.4058 15.8339 12.2469 15.8339 12.0509C15.8338 11.8549 15.675 11.696 15.479 11.696Z" fill="#2E8C83"/>
<path d="M13.3779 11.696H8.55167C8.35564 11.696 8.19678 11.8549 8.19678 12.0509C8.19678 12.2469 8.35564 12.4058 8.55167 12.4058H13.3779C13.5739 12.4058 13.7327 12.2469 13.7327 12.0509C13.7327 11.8549 13.5739 11.696 13.3779 11.696Z" fill="#2E8C83"/>
<path d="M5.77985 14.7384C5.11385 14.7384 4.57202 15.2803 4.57202 15.9463C4.57202 16.6123 5.11385 17.1541 5.77985 17.1541C6.44585 17.1541 6.98768 16.6123 6.98768 15.9463C6.98768 15.2803 6.44585 14.7384 5.77985 14.7384ZM5.77985 16.4444C5.50516 16.4444 5.28176 16.221 5.28176 15.9463C5.28176 15.6717 5.50521 15.4482 5.77985 15.4482C6.05449 15.4482 6.27794 15.6717 6.27794 15.9463C6.27794 16.221 6.05444 16.4444 5.77985 16.4444Z" fill="#2E8C83"/>
<path d="M15.479 15.5914H8.55167C8.35564 15.5914 8.19678 15.7503 8.19678 15.9463C8.19678 16.1423 8.35564 16.3012 8.55167 16.3012H15.479C15.6751 16.3012 15.8339 16.1423 15.8339 15.9463C15.8339 15.7503 15.6751 15.5914 15.479 15.5914Z" fill="#2E8C83"/>
<path d="M5.77985 18.6908C5.11385 18.6908 4.57202 19.2327 4.57202 19.8987C4.57202 20.5647 5.11385 21.1065 5.77985 21.1065C6.44585 21.1065 6.98768 20.5647 6.98768 19.8987C6.98768 19.2326 6.44585 18.6908 5.77985 18.6908ZM5.77985 20.3968C5.50516 20.3968 5.28176 20.1734 5.28176 19.8987C5.28176 19.6241 5.50521 19.4006 5.77985 19.4006C6.05449 19.4006 6.27794 19.6241 6.27794 19.8987C6.27794 20.1733 6.05444 20.3968 5.77985 20.3968Z" fill="#2E8C83"/>
<path d="M15.479 19.5438H8.55167C8.35564 19.5438 8.19678 19.7027 8.19678 19.8987C8.19678 20.0948 8.35564 20.2536 8.55167 20.2536H15.479C15.6751 20.2536 15.8339 20.0948 15.8339 19.8987C15.8339 19.7027 15.6751 19.5438 15.479 19.5438Z" fill="#2E8C83"/>
</svg>