<svg width="24" height="24" viewBox="0 0 24 24" fill="none" xmlns="http://www.w3.org/2000/svg">
<g clip-path="url(#clip0_523_2613)">
<path d="M20 0C17.7945 0 16 1.79442 16 3.99998C16 5.91314 18.8345 9.78525 19.4986 10.6665C19.4985 10.9512 19.4986 11.2307 19.4917 11.4873C19.4844 11.7631 19.7022 11.9932 19.9785 12.0005C19.983 12.0005 19.9874 12.0005 19.9922 12.0005C20.2618 12.0005 20.4844 11.7851 20.4917 11.5137C20.4986 11.2504 20.4984 10.9631 20.4986 10.6703C21.1583 9.79505 24 5.91539 24 3.99998C24 1.79442 22.2056 0 20 0ZM20 9.66309C18.9009 8.15091 17 5.27297 17 3.99998C17 2.34567 18.3457 0.999984 20 0.999984C21.6543 0.999984 23 2.34567 23 3.99998C23 5.27297 21.0991 8.15086 20 9.66309Z" fill="#14274E"/>
<path d="M20 3C19.4488 3 19 3.44873 19 3.99998C19 4.55123 19.4488 4.99997 20 4.99997C20.5513 4.99997 21 4.55128 21 3.99998C21 3.44873 20.5513 3 20 3Z" fill="#14274E"/>
<path d="M6 11C4.34569 11 3 12.3457 3 14C3 15.6543 4.34569 17 6 17C7.65431 17 9 15.6543 9 14C9 12.3457 7.65431 11 6 11ZM6 16C4.89698 16 3.99998 15.103 3.99998 14C3.99998 12.8969 4.89698 12 6 12C7.10302 12 8.00002 12.8969 8.00002 14C8.00002 15.1031 7.10302 16 6 16Z" fill="#14274E"/>
<path d="M13.5737 18.0206C13.3149 17.92 13.0269 18.0484 12.9268 18.3063C12.7027 18.8854 12.4224 19.5606 12.0444 20.1793C11.9004 20.4151 11.9751 20.7228 12.2105 20.8668C12.292 20.9166 12.3819 20.9401 12.4707 20.9401C12.6392 20.9401 12.8037 20.8551 12.898 20.7008C13.317 20.0143 13.6192 19.2877 13.8594 18.6676C13.959 18.4102 13.8311 18.1207 13.5737 18.0206Z" fill="#14274E"/>
<path d="M10.7544 21.6695C10.2534 22.0664 9.68409 22.3653 9.01317 22.5835C8.75048 22.669 8.6069 22.9512 8.69236 23.2139C8.76122 23.4248 8.95701 23.5591 9.16795 23.5591C9.21923 23.5591 9.27145 23.5513 9.32273 23.5347C10.0976 23.2828 10.788 22.919 11.3755 22.4536C11.5918 22.2817 11.6284 21.9673 11.457 21.751C11.2842 21.5352 10.9702 21.4966 10.7544 21.6695Z" fill="#14274E"/>
<path d="M15.3047 14.4105C14.4795 14.8788 14.021 15.6918 13.7476 16.2621C13.6279 16.5111 13.7329 16.81 13.9819 16.9291C14.0518 16.9628 14.1255 16.9784 14.1977 16.9784C14.3843 16.9784 14.563 16.8739 14.6489 16.6947C14.9961 15.9706 15.3506 15.5345 15.7988 15.2796C16.0386 15.1434 16.123 14.8382 15.9863 14.598C15.8506 14.3578 15.5464 14.2733 15.3047 14.4105Z" fill="#14274E"/>
<path d="M19.8144 13.1729C19.5874 13.0191 19.2754 13.0782 19.1201 13.3067C18.9556 13.5499 18.6186 13.8843 17.5996 13.9756C17.3246 14.0005 17.1215 14.2432 17.1464 14.5186C17.1698 14.7784 17.3881 14.9737 17.644 14.9737C17.6591 14.9737 17.6743 14.9732 17.6894 14.9717C18.7719 14.8745 19.5107 14.5132 19.9482 13.8672C20.1031 13.6387 20.043 13.3277 19.8144 13.1729Z" fill="#14274E"/>
<path d="M7.18477 23.0065C8.76244 21.324 12 17.4535 12 14C12 10.6357 9.36427 8 6 8C2.63573 8 0 10.6357 0 14C0 18.4653 5.42578 23.645 5.65673 23.8633C5.75292 23.9546 5.87648 24 6 24C6.36427 24 6.71044 23.9873 7.03856 23.9624C7.31395 23.9414 7.52048 23.7017 7.49948 23.4263C7.48448 23.2292 7.35694 23.0755 7.18477 23.0065ZM6 22.7949C4.81884 21.5899 0.999984 17.4277 0.999984 14C0.999984 11.1963 3.19631 8.99998 6 8.99998C8.80369 8.99998 11 11.1963 11 14C11 17.4277 7.18116 21.5898 6 22.7949Z" fill="#14274E"/>
</g>
<defs>
<clipPath id="clip0_523_2613">
<rect width="24" height="24" fill="white"/>
</clipPath>
</defs>
</svg>
