<svg width="24" height="19" viewBox="0 0 24 19" fill="none" xmlns="http://www.w3.org/2000/svg">
<path d="M7.3179 10.7972L3.99948 12.6407L1.81337 13.0051C1.74613 13.0163 1.68322 13.0456 1.63139 13.0899C1.57957 13.1342 1.54079 13.1917 1.51923 13.2564L0.76923 15.5064C0.753661 15.5531 0.747449 15.6025 0.750947 15.6516C0.754446 15.7007 0.767587 15.7487 0.789621 15.7927L1.53962 17.2927C1.56381 17.3411 1.59819 17.3837 1.64038 17.4175C1.68258 17.4514 1.7316 17.4757 1.78407 17.4888L2.86487 17.759C3.04674 18.122 3.32352 18.4289 3.6658 18.6473C4.00809 18.8656 4.40311 18.9872 4.80893 18.9991C5.21475 19.011 5.61621 18.9127 5.9707 18.7148C6.32519 18.5169 6.61947 18.2267 6.82229 17.875H17.1777C17.3749 18.217 17.6587 18.501 18.0006 18.6985C18.3424 18.896 18.7302 19 19.125 19C19.5198 19 19.9076 18.896 20.2495 18.6985C20.5913 18.501 20.8751 18.217 21.0723 17.875H22.5C22.5867 17.875 22.6707 17.845 22.7378 17.79C22.8048 17.735 22.8507 17.6586 22.8677 17.5735L23.2427 15.6985C23.2591 15.6168 23.2477 15.5319 23.2104 15.4573L22.4604 13.9573C22.4333 13.9031 22.3934 13.8562 22.3443 13.8208C22.2951 13.7854 22.2381 13.7624 22.1781 13.7538L17.0362 13.0192L14.494 10.8403C14.4261 10.782 14.3395 10.75 14.25 10.75H12.6068L11.9604 9.45728C11.9293 9.395 11.8814 9.34262 11.8221 9.30601C11.7629 9.26939 11.6946 9.25 11.625 9.25H10.5C10.4304 9.25 10.3621 9.26939 10.3029 9.30601C10.2436 9.34262 10.1958 9.395 10.1646 9.45728L9.51826 10.75H7.50001C7.43629 10.75 7.37361 10.7663 7.3179 10.7972ZM4.87501 18.25C4.57834 18.25 4.28833 18.162 4.04166 17.9972C3.79498 17.8324 3.60272 17.5981 3.48919 17.324C3.37566 17.0499 3.34596 16.7483 3.40383 16.4574C3.46171 16.1664 3.60457 15.8991 3.81435 15.6893C4.02413 15.4796 4.2914 15.3367 4.58238 15.2788C4.87335 15.2209 5.17495 15.2506 5.44904 15.3642C5.72313 15.4777 5.95739 15.67 6.12222 15.9166C6.28704 16.1633 6.37501 16.4533 6.37501 16.75C6.37456 17.1477 6.21639 17.529 5.93518 17.8102C5.65397 18.0914 5.2727 18.2496 4.87501 18.25ZM10.5 15.625H9.75001V16.375H10.5V17.125H7.09318C7.13562 16.8768 7.13562 16.6232 7.09318 16.375H7.50001V15.625H6.82229C6.57476 15.1961 6.19258 14.8608 5.73506 14.6713C5.27754 14.4817 4.77026 14.4485 4.29191 14.5767C3.81357 14.7049 3.39091 14.9874 3.08952 15.3804C2.78812 15.7733 2.62484 16.2548 2.62501 16.75C2.62501 16.8099 2.62806 16.8691 2.6327 16.9281L2.13329 16.803L1.52992 15.5962L2.15936 13.7078L4.18665 13.3699C4.22893 13.3629 4.26967 13.3486 4.30712 13.3277L5.46428 12.6849L6.06301 13.583C6.09725 13.6344 6.14364 13.6765 6.19807 13.7056C6.2525 13.7347 6.31328 13.75 6.37501 13.75H10.5V15.625ZM19.125 18.25C18.8283 18.25 18.5383 18.162 18.2917 17.9972C18.045 17.8324 17.8527 17.5981 17.7392 17.324C17.6257 17.0499 17.596 16.7483 17.6538 16.4574C17.7117 16.1664 17.8546 15.8991 18.0644 15.6893C18.2741 15.4796 18.5414 15.3367 18.8324 15.2788C19.1233 15.2209 19.4249 15.2506 19.699 15.3642C19.9731 15.4777 20.2074 15.67 20.3722 15.9166C20.537 16.1633 20.625 16.4533 20.625 16.75C20.6246 17.1477 20.4664 17.529 20.1852 17.8102C19.904 18.0914 19.5227 18.2496 19.125 18.25ZM21.8775 14.4685L22.4822 15.6778L22.1926 17.125H21.3432C21.4314 16.6049 21.3339 16.0703 21.0679 15.6148C20.8018 15.1592 20.3841 14.8117 19.8878 14.633C19.3914 14.4542 18.8481 14.4557 18.3527 14.637C17.8573 14.8184 17.4414 15.1681 17.1777 15.625H16.5V16.375H16.9068C16.8644 16.6232 16.8644 16.8768 16.9068 17.125H11.25V15.625H12V14.875H11.25V13.75H16.8484L21.8775 14.4685ZM14.1113 11.5L15.8613 13H11.25V11.5H14.1113ZM10.7316 10H11.3931L11.7681 10.75H10.3568L10.7316 10ZM10.5 11.5V13H6.57568L6.12189 12.3195L7.59718 11.5H10.5Z" fill="#14274E"/>
<path d="M19.125 17.5C19.5392 17.5 19.875 17.1642 19.875 16.75C19.875 16.3358 19.5392 16 19.125 16C18.7108 16 18.375 16.3358 18.375 16.75C18.375 17.1642 18.7108 17.5 19.125 17.5Z" fill="#14274E"/>
<path d="M4.875 17.5C5.28921 17.5 5.625 17.1642 5.625 16.75C5.625 16.3358 5.28921 16 4.875 16C4.46079 16 4.125 16.3358 4.125 16.75C4.125 17.1642 4.46079 17.5 4.875 17.5Z" fill="#14274E"/>
<path d="M15.75 14.875H16.5V15.625H15.75V14.875Z" fill="#14274E"/>
<path d="M15 15.625H15.75V16.375H15V15.625Z" fill="#14274E"/>
<path d="M14.25 14.875H15V15.625H14.25V14.875Z" fill="#14274E"/>
<path d="M13.5 15.625H14.25V16.375H13.5V15.625Z" fill="#14274E"/>
<path d="M12.75 14.875H13.5V15.625H12.75V14.875Z" fill="#14274E"/>
<path d="M12 15.625H12.75V16.375H12V15.625Z" fill="#14274E"/>
<path d="M9 14.875H9.75V15.625H9V14.875Z" fill="#14274E"/>
<path d="M8.25 15.625H9V16.375H8.25V15.625Z" fill="#14274E"/>
<path d="M7.5 14.875H8.25V15.625H7.5V14.875Z" fill="#14274E"/>
<path d="M12.75 3.625C12.75 3.32833 12.662 3.03832 12.4972 2.79165C12.3324 2.54497 12.0981 2.35271 11.824 2.23918C11.5499 2.12565 11.2483 2.09594 10.9574 2.15382C10.6664 2.2117 10.3991 2.35456 10.1893 2.56434C9.97956 2.77412 9.8367 3.04139 9.77882 3.33237C9.72094 3.62334 9.75065 3.92494 9.86418 4.19903C9.97771 4.47311 10.17 4.70738 10.4166 4.87221C10.6633 5.03703 10.9533 5.125 11.25 5.125C11.6477 5.12455 12.029 4.96638 12.3102 4.68517C12.5914 4.40396 12.7496 4.02269 12.75 3.625ZM10.5 3.625C10.5 3.47666 10.544 3.33166 10.6264 3.20832C10.7088 3.08499 10.8259 2.98886 10.963 2.93209C11.1 2.87533 11.2508 2.86047 11.3963 2.88941C11.5418 2.91835 11.6754 2.98978 11.7803 3.09467C11.8852 3.19956 11.9567 3.3332 11.9856 3.47868C12.0145 3.62417 11.9997 3.77497 11.9429 3.91201C11.8861 4.04906 11.79 4.16619 11.6667 4.2486C11.5433 4.33101 11.3983 4.375 11.25 4.375C11.0512 4.37478 10.8605 4.29569 10.7199 4.15508C10.5793 4.01448 10.5002 3.82384 10.5 3.625Z" fill="#14274E"/>
<path d="M11.25 8.49451C11.3115 8.49443 11.372 8.47957 11.4265 8.45119C11.481 8.42281 11.5279 8.38173 11.5632 8.33143L13.7804 5.16394C14.0868 4.72771 14.2508 4.20742 14.25 3.67435V3.62499C14.25 2.85854 13.9567 2.12116 13.4302 1.56416C12.9037 1.00716 12.184 0.672791 11.4188 0.629679C11.0144 0.606425 10.6095 0.666762 10.2295 0.806923C9.84947 0.947085 9.5024 1.16406 9.20996 1.44432C8.90731 1.73168 8.66617 2.0775 8.50116 2.46083C8.33615 2.84416 8.2507 3.25701 8.25 3.67435C8.24919 4.20742 8.4132 4.7277 8.71955 5.16394L10.9373 8.33209C10.9726 8.38223 11.0194 8.42315 11.0738 8.45142C11.1283 8.47968 11.1887 8.49446 11.25 8.49451ZM9 3.67435C9.00053 3.35895 9.06511 3.04694 9.18982 2.75725C9.31454 2.46755 9.49679 2.20621 9.72553 1.98905C10.1362 1.5952 10.6831 1.3752 11.2522 1.37499C11.2937 1.37499 11.3354 1.37615 11.3773 1.37846C11.9511 1.41089 12.4908 1.66172 12.8855 2.07948C13.2802 2.49724 13.5001 3.05024 13.5 3.62499V3.6744C13.5006 4.0535 13.3839 4.42352 13.1661 4.73377L11.25 7.47099L9.33394 4.73382C9.11606 4.42354 8.99943 4.05349 9 3.67435Z" fill="#14274E"/>
<path d="M4.125 11.875C4.22446 11.875 4.31984 11.8355 4.39016 11.7652C4.46049 11.6948 4.5 11.5995 4.5 11.5C4.5 11.4005 4.46049 11.3052 4.39016 11.2348C4.31984 11.1645 4.22446 11.125 4.125 11.125H3.375C3.27554 11.125 3.18016 11.1645 3.10984 11.2348C3.03951 11.3052 3 11.4005 3 11.5C3 11.5995 3.03951 11.6948 3.10984 11.7652C3.18016 11.8355 3.27554 11.875 3.375 11.875H4.125Z" fill="#14274E"/>
<path d="M4.875 9.625H1.875C1.77554 9.625 1.68016 9.66451 1.60984 9.73483C1.53951 9.80516 1.5 9.90054 1.5 10C1.5 10.0995 1.53951 10.1948 1.60984 10.2652C1.68016 10.3355 1.77554 10.375 1.875 10.375H4.875C4.97446 10.375 5.06984 10.3355 5.14016 10.2652C5.21049 10.1948 5.25 10.0995 5.25 10C5.25 9.90054 5.21049 9.80516 5.14016 9.73483C5.06984 9.66451 4.97446 9.625 4.875 9.625Z" fill="#14274E"/>
<path d="M0.75 11.5C0.75 11.5995 0.789509 11.6948 0.859835 11.7652C0.930161 11.8355 1.02554 11.875 1.125 11.875H1.875C1.97446 11.875 2.06984 11.8355 2.14016 11.7652C2.21049 11.6948 2.25 11.5995 2.25 11.5C2.25 11.4005 2.21049 11.3052 2.14016 11.2348C2.06984 11.1645 1.97446 11.125 1.875 11.125H1.125C1.02554 11.125 0.930161 11.1645 0.859835 11.2348C0.789509 11.3052 0.75 11.4005 0.75 11.5Z" fill="#14274E"/>
</svg>
