<svg width="24" height="16" viewBox="0 0 24 16" fill="none" xmlns="http://www.w3.org/2000/svg">
<path d="M12.2633 15.4998C12.0083 15.4998 11.7541 15.4368 11.5291 15.3131L11.0311 15.0438C10.8488 14.9456 10.7813 14.7176 10.8803 14.5353C10.9786 14.3531 11.2066 14.2856 11.3888 14.3846L11.8883 14.6546C12.0653 14.7513 12.2873 14.7753 12.4823 14.7183C12.5956 14.6853 12.7486 14.6103 12.8401 14.4438C12.9781 14.1918 12.9286 13.8873 12.8011 13.7388C12.6758 13.5926 12.6818 13.3758 12.8146 13.2363C12.9308 13.1156 13.1273 13.0691 13.2751 13.1471L14.3821 13.7268C14.7211 13.9113 15.1441 13.8026 15.3136 13.4921C15.4456 13.2498 15.3766 12.9453 15.2701 12.7916L14.2456 12.0791C14.0821 11.9651 14.0363 11.7431 14.1406 11.5736C14.2448 11.4033 14.4631 11.3456 14.6393 11.4416L16.5886 12.5066C16.7693 12.6056 16.9381 12.5883 17.0476 12.5553C17.2193 12.5051 17.3701 12.3813 17.4601 12.2156C17.6401 11.8871 17.5448 11.5256 17.2351 11.3561L15.9916 10.5476C15.8251 10.4388 15.7726 10.2198 15.8708 10.0473C15.9691 9.87558 16.1858 9.80883 16.3628 9.89733L18.8971 11.1551C19.2188 11.3298 19.6013 11.2031 19.7836 10.8716C19.9553 10.5543 19.8293 10.1366 19.5061 9.96033C19.3238 9.86133 19.2571 9.63333 19.3561 9.45183C19.4551 9.27033 19.6838 9.20208 19.8646 9.30183C20.5441 9.67233 20.8081 10.5558 20.4421 11.2308C20.0581 11.9313 19.2293 12.1908 18.5513 11.8203L18.2873 11.6898C18.3293 11.9876 18.2708 12.2973 18.1178 12.5756C17.9333 12.9146 17.6198 13.1696 17.2583 13.2753C16.9103 13.3773 16.5443 13.3376 16.2278 13.1651L16.1303 13.1126C16.1446 13.3578 16.0988 13.6151 15.9698 13.8513C15.6053 14.5181 14.7166 14.7648 14.0266 14.3876L13.6681 14.2001C13.6561 14.4086 13.5998 14.6171 13.4978 14.8031C13.3313 15.1091 13.0456 15.3341 12.6931 15.4383C12.5528 15.4796 12.4081 15.4998 12.2633 15.4998Z" fill="white"/>
<path d="M4.50609 8.69808C4.44909 8.69808 4.39209 8.68533 4.33734 8.65758L3.09084 8.02908C2.90559 7.93608 2.83134 7.71033 2.92509 7.52583C3.01809 7.34058 3.24309 7.26483 3.42834 7.36008L4.67484 7.98858C4.86009 8.08158 4.93434 8.30733 4.84059 8.49183C4.77534 8.62233 4.64334 8.69808 4.50609 8.69808Z" fill="white"/>
<path d="M7.50016 3.81251C7.47616 3.81251 7.45141 3.81026 7.42666 3.80501L4.88116 3.30176C4.67791 3.26126 4.54591 3.06476 4.58641 2.86151C4.62691 2.65826 4.82416 2.52326 5.02666 2.56676L7.57216 3.07001C7.77541 3.11051 7.90741 3.30701 7.86691 3.51026C7.83241 3.68876 7.67566 3.81251 7.50016 3.81251Z" fill="white"/>
<path d="M19.6755 10.0015C19.6132 10.0015 19.551 9.9858 19.4955 9.95505L17.0377 8.6103L13.6875 6.5313C13.5112 6.42255 13.4557 6.1923 13.5645 6.0153C13.6725 5.8383 13.9035 5.78355 14.0805 5.8923L17.4142 7.9623L19.4715 9.0873C19.6005 8.63805 19.5907 8.3073 19.59 8.30355C19.5832 8.14905 19.671 8.00655 19.812 7.94355L20.5875 7.59855C20.7772 7.51605 20.9992 7.60005 21.0825 7.78905C21.1665 7.97805 21.0817 8.20005 20.892 8.28405L20.331 8.5338C20.31 8.80755 20.2402 9.2658 20.0197 9.7758C19.9777 9.87255 19.8967 9.94755 19.7977 9.9813C19.758 9.9948 19.7167 10.0015 19.6755 10.0015Z" fill="white"/>
<path d="M9.08027 8.00136C8.55302 8.00136 8.04452 7.77186 7.62902 7.34211C7.53377 7.24311 7.50002 7.10061 7.54052 6.96936C7.66802 6.55911 7.80602 6.17586 7.93352 5.82111C8.13902 5.24811 8.31752 4.75386 8.37077 4.37211C8.38577 4.26636 8.44427 4.17186 8.53277 4.11261L8.91752 3.85011C9.78527 3.25311 11.238 2.25261 12.0278 1.92711C12.5003 1.73286 14.9978 2.21436 17.0093 2.65386C17.0625 2.66511 17.1128 2.68836 17.1555 2.72136C17.241 2.78586 17.3198 2.85261 17.394 2.92086L18.8318 2.52486C19.0313 2.46936 19.2383 2.58711 19.293 2.78661C19.3478 2.98611 19.2308 3.19311 19.0313 3.24786L17.388 3.70086C17.2575 3.73761 17.1173 3.70011 17.0213 3.60261C16.9425 3.52311 16.8585 3.44436 16.7655 3.36861C14.8215 2.94636 12.639 2.56086 12.2895 2.62836C11.5973 2.91561 10.1303 3.92586 9.34202 4.46811L9.08477 4.64361C9.00302 5.06211 8.83277 5.53611 8.63927 6.07536C8.53877 6.35511 8.43152 6.65286 8.32802 6.96786C8.66477 7.23936 8.98877 7.26936 9.21002 7.24386C9.54077 7.20411 9.84827 7.00386 10.0125 6.72261C10.1415 6.50061 10.3155 6.05886 10.4348 5.64786C10.476 5.50536 10.5983 5.40036 10.746 5.38086C10.9755 5.35011 11.8883 5.15736 12.4283 5.02911C12.6293 4.97886 12.8325 5.10636 12.8798 5.30736C12.9278 5.50911 12.8033 5.71086 12.6015 5.75886C12.1913 5.85636 11.4923 6.00861 11.0858 6.08436C10.9763 6.42186 10.8195 6.82836 10.6613 7.09986C10.3778 7.58736 9.86852 7.91961 9.30152 7.98861C9.22727 7.99761 9.15377 8.00136 9.08027 8.00136Z" fill="white"/>
<path d="M10.2405 15.4504C9.90755 15.4504 9.59555 15.3206 9.36155 15.0859L9.11705 14.8391C8.88455 14.6044 8.7578 14.2924 8.75855 13.9616C8.7593 13.6294 8.88905 13.3189 9.1238 13.0864L9.61805 12.6004C10.086 12.1369 10.9073 12.1406 11.3708 12.6101L11.6138 12.8539C12.0953 13.3414 12.0915 14.1281 11.607 14.6081L11.1128 15.0941C10.8803 15.3229 10.5705 15.4504 10.2405 15.4504ZM10.4903 12.9926C10.3598 12.9926 10.2368 13.0429 10.1453 13.1336L9.6518 13.6189C9.56105 13.7089 9.51005 13.8319 9.5093 13.9631C9.5093 14.0951 9.5588 14.2181 9.6503 14.3104L9.89405 14.5564C10.0763 14.7401 10.401 14.7409 10.5863 14.5579L11.0798 14.0726C11.2703 13.8844 11.271 13.5724 11.0805 13.3804L10.8383 13.1374C10.746 13.0436 10.623 12.9926 10.4903 12.9926Z" fill="white"/>
<path d="M5.05441 10.955C4.72141 10.955 4.40866 10.8252 4.17466 10.5897L3.93091 10.3445C3.44941 9.85771 3.45316 9.07171 3.93766 8.59096L4.43191 8.10496C4.89991 7.64221 5.71966 7.64446 6.18391 8.11321L6.42766 8.35921C6.66016 8.59396 6.78691 8.90521 6.78541 9.23746C6.78391 9.56896 6.65341 9.87946 6.41941 10.112L5.92591 10.5972C5.69416 10.8275 5.38441 10.955 5.05441 10.955ZM5.30416 8.49721C5.17366 8.49721 5.05066 8.54746 4.95841 8.63821L4.46491 9.12346C4.27441 9.31246 4.27366 9.62371 4.46341 9.81571L4.70641 10.0602C4.89016 10.2455 5.21416 10.2462 5.39866 10.0632L5.89291 9.57722C5.98441 9.48722 6.03466 9.36497 6.03541 9.23372C6.03616 9.10247 5.98666 8.97947 5.89516 8.88722L5.65141 8.64121C5.55991 8.54821 5.43691 8.49721 5.30416 8.49721Z" fill="white"/>
<path d="M6.34286 12.9156C6.00911 12.9156 5.69636 12.7859 5.46311 12.5489L5.21936 12.3036C4.98686 12.0704 4.85936 11.7591 4.86011 11.4284C4.86086 11.0961 4.99136 10.7849 5.22686 10.5516L6.20861 9.57738C6.67736 9.11238 7.49561 9.11613 7.96136 9.58488L8.20511 9.83163C8.43761 10.0656 8.56436 10.3769 8.56286 10.7084C8.56136 11.0406 8.43161 11.3511 8.19611 11.5836L7.21511 12.5564C6.98261 12.7881 6.67211 12.9156 6.34286 12.9156ZM7.08086 9.96888C6.95036 9.96888 6.82811 10.0184 6.73661 10.1099L5.75486 11.0841C5.66186 11.1764 5.61086 11.2994 5.61011 11.4306C5.61011 11.5611 5.65961 11.6834 5.75111 11.7749L5.99561 12.0209C6.17861 12.2069 6.50261 12.2061 6.68711 12.0239L7.66886 11.0504C7.76186 10.9589 7.81286 10.8359 7.81286 10.7046C7.81361 10.5734 7.76411 10.4511 7.67261 10.3596L7.42886 10.1129C7.33661 10.0206 7.21286 9.96888 7.08086 9.96888Z" fill="white"/>
<path d="M8.29208 14.1831C7.95833 14.1831 7.64558 14.0526 7.41158 13.8163L7.16858 13.5703C6.93608 13.3371 6.80858 13.0251 6.80933 12.6943C6.81008 12.3621 6.93983 12.0516 7.17458 11.8191L7.91333 11.0893C8.38208 10.6251 9.20183 10.6288 9.66608 11.0983L9.90908 11.3436C10.3891 11.8281 10.3853 12.6141 9.90233 13.0956L9.16433 13.8253C8.93183 14.0556 8.62208 14.1831 8.29208 14.1831ZM8.78558 11.4808C8.65508 11.4808 8.53283 11.5311 8.44133 11.6218L7.70258 12.3516C7.61033 12.4431 7.56008 12.5653 7.55933 12.6966C7.55858 12.8278 7.60883 12.9501 7.70033 13.0416L7.94483 13.2883C8.12783 13.4743 8.45183 13.4743 8.63633 13.2921L9.37433 12.5623C9.56483 12.3726 9.56633 12.0621 9.37658 11.8701L9.13358 11.6248C9.04208 11.5318 8.91833 11.4808 8.78558 11.4808Z" fill="white"/>
<path d="M21.2108 9.57854C21.1568 9.57854 21.102 9.56654 21.0525 9.54329C20.961 9.50054 20.8905 9.42254 20.8575 9.32729L18.4365 2.41154C18.3705 2.22254 18.465 2.01404 18.651 1.93979L22.725 0.307042C22.9178 0.230542 23.1353 0.323541 23.2125 0.515541C23.2898 0.707541 23.196 0.925791 23.004 1.00304L19.2623 2.50229L21.4373 8.71679L22.8 8.20304C22.9943 8.13029 23.2103 8.22779 23.283 8.42204C23.3565 8.61554 23.2583 8.83229 23.064 8.90504L21.342 9.55379C21.3008 9.57029 21.2558 9.57854 21.2108 9.57854Z" fill="white"/>
<path d="M2.60179 9.55449C2.56204 9.55449 2.52229 9.54849 2.48254 9.53499L0.999786 9.03849C0.803286 8.97249 0.697536 8.76024 0.763536 8.56374C0.829536 8.36724 1.04329 8.26224 1.23829 8.32749L2.37004 8.70624L4.55254 2.47224L1.02154 0.98424C0.830286 0.90399 0.741036 0.684239 0.821286 0.492989C0.902286 0.302489 1.12204 0.21474 1.31254 0.29349L5.16754 1.91874C5.34979 1.99599 5.44129 2.20149 5.37604 2.38824L2.95504 9.30399C2.90179 9.45774 2.75629 9.55449 2.60179 9.55449Z" fill="white"/>
</svg>
