<svg width="24" height="22" viewBox="0 0 24 22" fill="none" xmlns="http://www.w3.org/2000/svg">
<path d="M17.6 0.0390625C14.7847 0.0390625 12.9233 1.57633 12 2.59342C11.0767 1.57642 9.21534 0.0390625 6.39998 0.0390625C2.55848 0.0390625 0 3.61136 0 7.61313C0 10.6074 1.50989 16.4408 11.6218 21.8661C11.8579 21.9928 12.142 21.9929 12.3782 21.8661C22.4902 16.4407 24 10.6074 24 7.61313C24 3.5185 21.3658 0.0390625 17.6 0.0390625ZM12 20.2508C7.14286 17.5802 1.59998 13.1306 1.59998 7.61313C1.59998 4.54389 3.44306 1.63909 6.39998 1.63909C8.64328 1.63909 10.4993 3.01459 11.3206 4.3097C11.6337 4.81328 12.369 4.81277 12.6808 4.30755C12.6973 4.28087 14.3654 1.63905 17.6 1.63905C20.579 1.63905 22.4 4.573 22.4 7.61308C22.4 13.1307 16.8573 17.5802 12 20.2508Z" fill="black"/>
</svg>