<svg width="26" height="47" viewBox="0 0 26 47" fill="none" xmlns="http://www.w3.org/2000/svg">
<path d="M11.8396 46.132C12.0356 46.5095 12.3657 46.7362 12.719 46.7362C13.0723 46.7362 13.4024 46.5095 13.5984 46.132C16.0995 41.3162 19.7834 35.3686 22.3506 29.3197C24.4033 24.4832 25.4011 20.3582 25.4011 16.7092C25.4011 7.73252 19.7119 0.429443 12.719 0.429443C5.72607 0.429443 0.0368652 7.73252 0.0368652 16.7092C0.0368652 20.3582 1.03474 24.4832 3.08741 29.3197C5.65265 35.364 9.34365 41.3262 11.8396 46.132ZM12.719 3.14273C18.5464 3.14273 23.2874 9.22863 23.2874 16.7092C23.2874 19.8931 22.3738 23.5935 20.4945 28.0217C18.2817 33.2356 15.124 38.5246 12.719 42.971C10.3144 38.5252 7.15647 33.2359 4.94351 28.0217C3.06416 23.5935 2.15055 19.8931 2.15055 16.7092C2.15055 9.22863 6.89156 3.14273 12.719 3.14273Z" fill="black"/>
<path d="M12.7192 24.849C16.2157 24.849 19.0603 21.1975 19.0603 16.7092C19.0603 12.2208 16.2157 8.56931 12.7192 8.56931C9.22278 8.56931 6.37817 12.2208 6.37817 16.7092C6.37817 21.1975 9.22278 24.849 12.7192 24.849ZM12.7192 11.2826C15.0502 11.2826 16.9466 13.717 16.9466 16.7092C16.9466 19.7014 15.0502 22.1357 12.7192 22.1357C10.3883 22.1357 8.49186 19.7014 8.49186 16.7092C8.49186 13.717 10.3883 11.2826 12.7192 11.2826Z" fill="black"/>
</svg>
