<svg width="18" height="24" viewBox="0 0 18 24" fill="none" xmlns="http://www.w3.org/2000/svg">
<path d="M8.99998 0C4.55266 0 0.93457 3.61809 0.93457 8.06541C0.93457 9.79838 1.47565 11.4494 2.49935 12.8407L8.61007 21.912C8.69745 22.0417 8.8436 22.1195 8.99998 22.1195C9.1564 22.1195 9.30251 22.0417 9.38988 21.912L15.5006 12.8407C16.5243 11.4494 17.0654 9.79842 17.0654 8.06545C17.0654 3.61809 13.4473 0 8.99998 0ZM14.7361 12.2933C14.7302 12.3013 14.7244 12.3097 14.7189 12.3182L8.99998 20.8079L3.28202 12.3196C3.2763 12.3106 3.27026 12.3019 3.26393 12.2933C2.35516 11.0625 1.87484 9.60056 1.87484 8.06536C1.87484 4.13658 5.0712 0.940266 8.99998 0.940266C12.9288 0.940266 16.1251 4.13662 16.1251 8.06541C16.1251 9.60056 15.6448 11.0625 14.7361 12.2933Z" fill="white"/>
<path d="M12.2909 7.54579C12.0313 7.54579 11.8208 7.75626 11.8208 8.0159C11.8208 9.57126 10.5554 10.8366 9.00008 10.8366C7.44472 10.8366 6.17933 9.57126 6.17933 8.0159C6.17933 6.46054 7.44472 5.19515 9.00008 5.19515C9.56539 5.19515 10.1106 5.36165 10.5769 5.6766C10.7921 5.82196 11.0843 5.76538 11.2296 5.55023C11.375 5.33512 11.3184 5.04285 11.1033 4.89749C10.481 4.47712 9.75369 4.25488 9.00003 4.25488C6.92619 4.25488 5.23901 5.94205 5.23901 8.0159C5.23901 10.0897 6.92619 11.7769 9.00003 11.7769C11.0739 11.7769 12.761 10.0897 12.761 8.0159C12.761 7.75626 12.5506 7.54579 12.2909 7.54579Z" fill="white"/>
<path d="M14.6335 23.0596H3.35048C3.09084 23.0596 2.88037 23.27 2.88037 23.5297C2.88037 23.7893 3.09084 23.9998 3.35048 23.9998H14.6335C14.8932 23.9998 15.1036 23.7893 15.1036 23.5297C15.1037 23.27 14.8932 23.0596 14.6335 23.0596Z" fill="white"/>
<path d="M11.9148 5.99902H11.9054C11.6458 5.99902 11.4353 6.20949 11.4353 6.46913C11.4353 6.72877 11.6458 6.93924 11.9054 6.93924H11.9148C12.1745 6.93924 12.3849 6.72877 12.3849 6.46913C12.385 6.20949 12.1745 5.99902 11.9148 5.99902Z" fill="white"/>
</svg>
