<svg width="80" height="56" viewBox="0 0 80 56" fill="none" xmlns="http://www.w3.org/2000/svg">
<rect width="80" height="56" rx="4" fill="#012438"/>
<path d="M25.0837 46.7556V44.2624C25.0837 43.3067 24.502 42.6834 23.5047 42.6834C23.006 42.6834 22.4659 42.8496 22.0919 43.3898C21.801 42.9327 21.3855 42.6834 20.7622 42.6834C20.3466 42.6834 19.9311 42.8081 19.5987 43.2652V42.7665H18.7261V46.7556H19.5987V44.5533C19.5987 43.8469 19.9727 43.5145 20.5544 43.5145C21.1362 43.5145 21.427 43.8884 21.427 44.5533V46.7556H22.2996V44.5533C22.2996 43.8469 22.7152 43.5145 23.2554 43.5145C23.8371 43.5145 24.128 43.8884 24.128 44.5533V46.7556H25.0837ZM38.0067 42.7665H36.5939V41.5615H35.7213V42.7665H34.9318V43.556H35.7213V45.3844C35.7213 46.2985 36.0953 46.8387 37.0926 46.8387C37.4665 46.8387 37.8821 46.7141 38.1729 46.5479L37.9236 45.7999C37.6743 45.9661 37.3834 46.0077 37.1757 46.0077C36.7601 46.0077 36.5939 45.7583 36.5939 45.3428V43.556H38.0067V42.7665ZM45.4032 42.6834C44.9045 42.6834 44.5721 42.9327 44.3643 43.2652V42.7665H43.4917V46.7556H44.3643V44.5118C44.3643 43.8469 44.6552 43.4729 45.1954 43.4729C45.3616 43.4729 45.5694 43.5145 45.7356 43.556L45.9849 42.725C45.8187 42.6834 45.5694 42.6834 45.4032 42.6834ZM34.2254 43.0989C33.8099 42.8081 33.2281 42.6834 32.6048 42.6834C31.6075 42.6834 30.9427 43.182 30.9427 43.9716C30.9427 44.6364 31.4413 45.0104 32.3139 45.135L32.7295 45.1766C33.1866 45.2597 33.4359 45.3844 33.4359 45.5921C33.4359 45.883 33.1035 46.0908 32.5217 46.0908C31.94 46.0908 31.4829 45.883 31.192 45.6752L30.7765 46.3401C31.2336 46.6725 31.8569 46.8387 32.4802 46.8387C33.6437 46.8387 34.3085 46.2985 34.3085 45.5506C34.3085 44.8442 33.7683 44.4702 32.9372 44.3455L32.5217 44.304C32.1477 44.2624 31.8569 44.1793 31.8569 43.93C31.8569 43.6391 32.1477 43.4729 32.6048 43.4729C33.1035 43.4729 33.6021 43.6807 33.8514 43.8053L34.2254 43.0989ZM57.412 42.6834C56.9134 42.6834 56.581 42.9327 56.3732 43.2652V42.7665H55.5006V46.7556H56.3732V44.5118C56.3732 43.8469 56.6641 43.4729 57.2043 43.4729C57.3705 43.4729 57.5783 43.5145 57.7445 43.556L57.9938 42.725C57.8276 42.6834 57.5783 42.6834 57.412 42.6834ZM46.2758 44.7611C46.2758 45.9661 47.1069 46.8387 48.395 46.8387C48.9768 46.8387 49.3923 46.7141 49.8078 46.3816L49.3923 45.6752C49.0599 45.9246 48.7274 46.0492 48.3535 46.0492C47.6471 46.0492 47.1484 45.5506 47.1484 44.7611C47.1484 44.0131 47.6471 43.5145 48.3535 43.4729C48.7274 43.4729 49.0599 43.5976 49.3923 43.8469L49.8078 43.1405C49.3923 42.8081 48.9768 42.6834 48.395 42.6834C47.1069 42.6834 46.2758 43.556 46.2758 44.7611ZM54.3371 44.7611V42.7665H53.4645V43.2652C53.1736 42.8912 52.7581 42.6834 52.2179 42.6834C51.096 42.6834 50.2233 43.556 50.2233 44.7611C50.2233 45.9661 51.096 46.8387 52.2179 46.8387C52.7996 46.8387 53.2152 46.631 53.4645 46.257V46.7556H54.3371V44.7611ZM51.1375 44.7611C51.1375 44.0547 51.5946 43.4729 52.3426 43.4729C53.049 43.4729 53.5476 44.0131 53.5476 44.7611C53.5476 45.4675 53.049 46.0492 52.3426 46.0492C51.5946 46.0077 51.1375 45.4675 51.1375 44.7611ZM40.7077 42.6834C39.5442 42.6834 38.7131 43.5145 38.7131 44.7611C38.7131 46.0077 39.5442 46.8387 40.7492 46.8387C41.331 46.8387 41.9127 46.6725 42.3698 46.2985L41.9543 45.6752C41.6218 45.9246 41.2063 46.0908 40.7908 46.0908C40.2506 46.0908 39.7104 45.8415 39.5857 45.135H42.536V44.8026C42.5776 43.5145 41.8296 42.6834 40.7077 42.6834ZM40.7077 43.4314C41.2479 43.4314 41.6218 43.7638 41.705 44.3871H39.6273C39.7104 43.8469 40.0844 43.4314 40.7077 43.4314ZM62.3569 44.7611V41.1875H61.4842V43.2652C61.1934 42.8912 60.7778 42.6834 60.2377 42.6834C59.1157 42.6834 58.2431 43.556 58.2431 44.7611C58.2431 45.9661 59.1157 46.8387 60.2377 46.8387C60.8194 46.8387 61.2349 46.631 61.4842 46.257V46.7556H62.3569V44.7611ZM59.1573 44.7611C59.1573 44.0547 59.6143 43.4729 60.3623 43.4729C61.0687 43.4729 61.5674 44.0131 61.5674 44.7611C61.5674 45.4675 61.0687 46.0492 60.3623 46.0492C59.6143 46.0077 59.1573 45.4675 59.1573 44.7611ZM29.987 44.7611V42.7665H29.1144V43.2652C28.8235 42.8912 28.408 42.6834 27.8678 42.6834C26.7458 42.6834 25.8732 43.556 25.8732 44.7611C25.8732 45.9661 26.7458 46.8387 27.8678 46.8387C28.4495 46.8387 28.865 46.631 29.1144 46.257V46.7556H29.987V44.7611ZM26.7458 44.7611C26.7458 44.0547 27.2029 43.4729 27.9509 43.4729C28.6573 43.4729 29.1559 44.0131 29.1559 44.7611C29.1559 45.4675 28.6573 46.0492 27.9509 46.0492C27.2029 46.0077 26.7458 45.4675 26.7458 44.7611Z" fill="white"/>
<path d="M47.0238 12.4741H33.9346V35.9932H47.0238V12.4741Z" fill="#FF5F00"/>
<path d="M34.7656 24.2335C34.7656 19.4549 37.0094 15.2165 40.4583 12.474C37.9236 10.4795 34.724 9.27441 31.2335 9.27441C22.9645 9.27441 16.2744 15.9645 16.2744 24.2335C16.2744 32.5026 22.9645 39.1927 31.2335 39.1927C34.724 39.1927 37.9236 37.9876 40.4583 35.9931C37.0094 33.2921 34.7656 29.0122 34.7656 24.2335Z" fill="#EB001B"/>
<path d="M64.6839 24.2335C64.6839 32.5026 57.9939 39.1927 49.7248 39.1927C46.2343 39.1927 43.0347 37.9876 40.5 35.9931C43.9905 33.2506 46.1928 29.0122 46.1928 24.2335C46.1928 19.4549 43.9489 15.2165 40.5 12.474C43.0347 10.4795 46.2343 9.27441 49.7248 9.27441C57.9939 9.27441 64.6839 16.006 64.6839 24.2335Z" fill="#F79E1B"/>
</svg>
