<svg width="22" height="24" viewBox="0 0 22 24" fill="none" xmlns="http://www.w3.org/2000/svg">
<path d="M9.125 1.875C8.86625 1.875 8.65625 2.085 8.65625 2.34375C8.65625 2.6025 8.86625 2.8125 9.125 2.8125C9.38375 2.8125 9.59375 2.6025 9.59375 2.34375C9.59375 2.085 9.38375 1.875 9.125 1.875Z" fill="white"/>
<path d="M3.5 8.0625C3.24125 8.0625 3.03125 8.2725 3.03125 8.53125C3.03125 8.79 3.24125 9 3.5 9C3.75875 9 3.96875 8.79 3.96875 8.53125C3.96875 8.2725 3.75875 8.0625 3.5 8.0625Z" fill="white"/>
<path d="M3.5 10.875C3.24125 10.875 3.03125 11.085 3.03125 11.3438C3.03125 11.6025 3.24125 11.8125 3.5 11.8125C3.75875 11.8125 3.96875 11.6025 3.96875 11.3438C3.96875 11.085 3.75875 10.875 3.5 10.875Z" fill="white"/>
<path d="M3.5 13.6875C3.24125 13.6875 3.03125 13.8975 3.03125 14.1562C3.03125 14.415 3.24125 14.625 3.5 14.625C3.75875 14.625 3.96875 14.415 3.96875 14.1562C3.96875 13.8975 3.75875 13.6875 3.5 13.6875Z" fill="white"/>
<path d="M3.5 16.5C3.24125 16.5 3.03125 16.71 3.03125 16.9688C3.03125 17.2275 3.24125 17.4375 3.5 17.4375C3.75875 17.4375 3.96875 17.2275 3.96875 16.9688C3.96875 16.71 3.75875 16.5 3.5 16.5Z" fill="white"/>
<path d="M3.5 19.3125C3.24125 19.3125 3.03125 19.5225 3.03125 19.7812C3.03125 20.04 3.24125 20.25 3.5 20.25C3.75875 20.25 3.96875 20.04 3.96875 19.7812C3.96875 19.5225 3.75875 19.3125 3.5 19.3125Z" fill="white"/>
<path d="M14.75 8.0625H5.375C5.11616 8.0625 4.90625 8.27241 4.90625 8.53125C4.90625 8.79009 5.11616 9 5.375 9H14.75C15.0088 9 15.2188 8.79009 15.2188 8.53125C15.2188 8.27241 15.0088 8.0625 14.75 8.0625Z" fill="white"/>
<path d="M14.75 10.875H5.375C5.11616 10.875 4.90625 11.0849 4.90625 11.3438C4.90625 11.6026 5.11616 11.8125 5.375 11.8125H14.75C15.0088 11.8125 15.2188 11.6026 15.2188 11.3438C15.2188 11.0849 15.0088 10.875 14.75 10.875Z" fill="white"/>
<path d="M14.75 13.6875H5.375C5.11616 13.6875 4.90625 13.8974 4.90625 14.1562C4.90625 14.4151 5.11616 14.625 5.375 14.625H14.75C15.0088 14.625 15.2188 14.4151 15.2188 14.1562C15.2188 13.8974 15.0088 13.6875 14.75 13.6875Z" fill="white"/>
<path d="M18.8315 18.0435C18.6484 17.8605 18.3517 17.8605 18.1686 18.0435L16.625 19.587L16.019 18.981C15.8359 18.798 15.5392 18.798 15.356 18.981C15.173 19.164 15.173 19.4609 15.356 19.6439L16.2935 20.5814C16.3851 20.6729 16.505 20.7187 16.625 20.7187C16.745 20.7187 16.8649 20.6729 16.9565 20.5814L18.8315 18.7064C19.0145 18.5234 19.0145 18.2266 18.8315 18.0435Z" fill="white"/>
<path d="M18.0312 14.719V4.21875C18.0312 3.44334 17.4004 2.8125 16.625 2.8125H13.2631C13.0696 2.26692 12.5486 1.875 11.9375 1.875H11.4216C11.2039 0.806531 10.2568 0 9.125 0C7.99316 0 7.04609 0.806531 6.82836 1.875H6.3125C5.70144 1.875 5.18038 2.26692 4.98688 2.8125H1.625C0.849594 2.8125 0.21875 3.44334 0.21875 4.21875V22.5938C0.21875 23.3692 0.849594 24 1.625 24H17.0938C19.6785 24 21.7812 21.8972 21.7812 19.3125C21.7812 17.0612 20.1963 15.156 18.0312 14.719ZM5.84375 3.28125C5.84375 3.02278 6.05403 2.8125 6.3125 2.8125H7.25C7.50884 2.8125 7.71875 2.60259 7.71875 2.34375C7.71875 1.56834 8.34959 0.9375 9.125 0.9375C9.90041 0.9375 10.5312 1.56834 10.5312 2.34375C10.5312 2.60259 10.7412 2.8125 11 2.8125H11.9375C12.196 2.8125 12.4062 3.02278 12.4062 3.28125V3.75H5.84375V3.28125ZM1.625 23.0625C1.36653 23.0625 1.15625 22.8522 1.15625 22.5938V4.21875C1.15625 3.96028 1.36653 3.75 1.625 3.75H4.90625V4.21875C4.90625 4.47759 5.11616 4.6875 5.375 4.6875H12.875C13.1338 4.6875 13.3438 4.47759 13.3438 4.21875V3.75H16.625C16.8835 3.75 17.0938 3.96028 17.0938 4.21875V14.625C15.6112 14.625 14.228 15.3216 13.3441 16.5H5.375C5.11616 16.5 4.90625 16.7099 4.90625 16.9688C4.90625 17.2276 5.11616 17.4328 5.375 17.4328H12.7968C12.5401 18.0201 12.4062 18.6607 12.4062 19.3125H5.375C5.11616 19.3125 4.90625 19.5224 4.90625 19.7812C4.90625 20.0401 5.11616 20.25 5.375 20.25H12.5003C12.7329 21.4024 13.3814 22.3904 14.2768 23.0625H1.625ZM17.0938 23.0625C15.1788 23.0625 13.5765 21.6298 13.3667 19.7302C13.3515 19.591 13.3438 19.4505 13.3438 19.3125C13.3438 18.567 13.5617 17.8474 13.9742 17.231C13.9744 17.2308 13.9745 17.2305 13.9746 17.2303C13.9748 17.23 13.975 17.2297 13.9752 17.2295C14.6736 16.1857 15.8394 15.5625 17.0938 15.5625C17.2317 15.5625 17.3722 15.5702 17.5115 15.5855C19.4112 15.7955 20.8438 17.3977 20.8438 19.3125C20.8438 21.3802 19.1615 23.0625 17.0938 23.0625Z" fill="white"/>
</svg>