<svg width="24" height="24" viewBox="0 0 24 24" fill="none" xmlns="http://www.w3.org/2000/svg">
<g clip-path="url(#clip0_523_2581)">
<path d="M22.9338 18.4587L19.161 10.4029C19.0787 10.2271 18.8693 10.1514 18.6934 10.2337C18.5176 10.316 18.4418 10.5254 18.5242 10.7012L22.297 18.7567C22.4657 19.1176 22.3095 19.5488 21.9488 19.7178L14.7152 23.1054C14.3545 23.2744 13.9235 23.1183 13.7544 22.7576L12.402 19.8691L15.922 11.3762C16.0741 11.0091 16.0656 10.5919 15.8987 10.2314L13.9733 6.07225L16.4691 6.86182C16.6611 6.92247 16.8201 7.06179 16.9054 7.24441L17.8299 9.21758C17.8897 9.34518 18.0163 9.42008 18.1485 9.42008C18.1984 9.42008 18.2492 9.40935 18.2974 9.3868C18.4733 9.30444 18.549 9.09505 18.4666 8.91922L17.5423 6.94638C17.3741 6.58629 17.0601 6.31108 16.6809 6.19136L13.6711 5.23914C14.2916 4.33266 14.9453 3.12051 15.1702 2.57784C15.76 1.15489 15.284 0.363546 14.6419 0.0973879C13.9997 -0.168676 13.1035 0.0539344 12.5137 1.47688C12.2601 2.08888 12.0274 3.42174 11.8618 4.56516C11.6649 4.5774 11.4669 4.61865 11.274 4.69238L6.72023 6.4323C6.35591 6.57152 6.0613 6.85802 5.91196 7.21826L1.04138 18.9701C0.895553 19.322 0.895459 19.7095 1.04115 20.0614C1.18679 20.4133 1.46078 20.6874 1.81257 20.8331L3.23711 21.4235C3.41651 21.4979 3.62224 21.4127 3.69654 21.2334C3.77088 21.054 3.68576 20.8483 3.50637 20.7739L2.08183 20.1835C1.90356 20.1096 1.76467 19.9707 1.69084 19.7924C1.61701 19.614 1.61706 19.4176 1.69098 19.2393L6.5617 7.48732C6.6374 7.30474 6.7867 7.15952 6.97134 7.08898L11.5251 5.34906C11.6034 5.31915 11.6829 5.2975 11.7628 5.28339C11.7194 5.61362 11.6841 5.90242 11.6586 6.11889C11.5095 6.12742 11.3618 6.16422 11.2225 6.22947C10.9351 6.364 10.7174 6.60241 10.6094 6.90072C10.5013 7.19909 10.516 7.52159 10.6505 7.80893C10.8522 8.23972 11.2811 8.49294 11.7281 8.49294C11.8965 8.49294 12.0676 8.45694 12.2299 8.38091C12.5173 8.24637 12.735 8.00792 12.8431 7.70965C12.9511 7.41129 12.9365 7.08879 12.802 6.80144C12.7017 6.5875 12.5439 6.41228 12.3466 6.29205C12.3728 6.06817 12.4127 5.73803 12.4633 5.3537C12.7676 5.47229 13.0278 5.70344 13.174 6.01942L15.2605 10.5266C15.3451 10.7093 15.3494 10.9208 15.2723 11.1068L10.4049 22.8509C10.331 23.0292 10.1921 23.1681 10.0137 23.2419C9.83542 23.3158 9.63901 23.3157 9.4607 23.2418L5.11072 21.439C4.93142 21.3645 4.72564 21.4497 4.65129 21.6291C4.577 21.8085 4.66208 22.0142 4.84147 22.0885L9.19145 23.8914C9.36934 23.9652 9.55388 24 9.73548 24C10.2951 24 10.8272 23.6685 11.0544 23.1201L12.0373 20.7487L13.1175 23.0558C13.3597 23.5727 13.8746 23.8767 14.4109 23.8767C14.6131 23.8767 14.8185 23.8334 15.0134 23.7421L22.247 20.3545C22.9587 20.0211 23.2668 19.1707 22.9338 18.4587ZM12.1819 7.47021C12.1378 7.5919 12.049 7.68917 11.9317 7.7441C11.6898 7.85745 11.4006 7.75273 11.2873 7.51076C11.2324 7.39357 11.2264 7.26195 11.2705 7.14021C11.3146 7.01852 11.4034 6.92126 11.5206 6.86632C11.586 6.83571 11.6558 6.82033 11.7259 6.82033C11.7815 6.82033 11.8373 6.83004 11.8911 6.84954C12.0128 6.8936 12.1101 6.98243 12.165 7.09966C12.22 7.21695 12.226 7.34848 12.1819 7.47021ZM13.0678 4.87581C12.9102 4.77592 12.7395 4.69834 12.561 4.64513C12.7196 3.54792 12.937 2.29265 13.1635 1.74604C13.323 1.36105 13.7602 0.493203 14.3728 0.746939C14.9852 1.00082 14.6803 1.9236 14.5207 2.30854C14.3045 2.83017 13.6671 4.00899 13.0678 4.87581Z" fill="#14274E"/>
<path d="M7.23809 11.8544C7.99982 11.4489 8.87385 11.3643 9.69923 11.6164C11.0692 12.0346 11.9888 13.277 11.9874 14.7079C11.9873 14.9021 12.1445 15.0596 12.3387 15.0598C12.3388 15.0598 12.3389 15.0598 12.3391 15.0598C12.5331 15.0598 12.6905 14.9026 12.6907 14.7086C12.6914 13.8829 12.4229 13.0589 11.9345 12.3882C11.4294 11.6945 10.7274 11.195 9.9045 10.9438C7.82985 10.3105 5.62685 11.483 4.99361 13.5576C4.68681 14.5626 4.78975 15.6268 5.28349 16.5544C5.77718 17.482 6.60246 18.1618 7.60742 18.4686C7.98303 18.5832 8.37018 18.6401 8.75662 18.6401C9.30614 18.6401 9.85383 18.5249 10.363 18.2968C11.2216 17.9121 11.9142 17.2339 12.3132 16.3869C12.396 16.2112 12.3206 16.0017 12.145 15.919C11.9694 15.8361 11.7598 15.9115 11.6771 16.0872C10.9989 17.5268 9.33773 18.2616 7.81283 17.7959C6.9875 17.544 6.30973 16.9858 5.90426 16.224C5.49883 15.4623 5.41427 14.5882 5.66627 13.7629C5.91808 12.9376 6.47642 12.2598 7.23809 11.8544Z" fill="#14274E"/>
<path d="M10.1083 13.7494C10.0242 13.5913 9.88346 13.4753 9.71204 13.423L9.55234 13.3743L9.66085 13.0188C9.71753 12.833 9.61295 12.6365 9.42727 12.5798C9.24146 12.5232 9.04505 12.6277 8.98833 12.8134L8.87738 13.177C8.40896 13.0961 7.94114 13.3744 7.79887 13.8406C7.72415 14.0853 7.74923 14.3445 7.86947 14.5704C7.98966 14.7962 8.1907 14.9618 8.43539 15.0365L8.87799 15.1716C8.9431 15.1915 8.99654 15.2355 9.02851 15.2956C9.06048 15.3556 9.06713 15.4246 9.04726 15.4897C9.02738 15.5548 8.98337 15.6082 8.92327 15.6402C8.86322 15.6722 8.79432 15.6788 8.72921 15.6589L8.50796 15.5914L8.04155 15.449C8.07816 15.2731 7.97513 15.095 7.79986 15.0415C7.61404 14.9849 7.41759 15.0894 7.36092 15.2752C7.25296 15.6289 7.45284 16.0045 7.80661 16.1125L7.96636 16.1613L7.85784 16.5168C7.80117 16.7025 7.90575 16.8991 8.09142 16.9557C8.12564 16.9662 8.16019 16.9711 8.19417 16.9711C8.34474 16.9711 8.4841 16.8736 8.53036 16.7221L8.64122 16.3589C8.6956 16.3684 8.75026 16.3737 8.80482 16.3737C8.95965 16.3737 9.11316 16.3357 9.2537 16.2609C9.47954 16.1407 9.64515 15.9397 9.71982 15.695C9.87404 15.1897 9.58853 14.6533 9.0833 14.499L8.64071 14.3639C8.57564 14.3441 8.52221 14.3001 8.49024 14.24C8.45827 14.1799 8.45157 14.111 8.47149 14.0458C8.51246 13.9115 8.65505 13.8355 8.78958 13.8766L9.01069 13.9441C9.01074 13.9441 9.01079 13.9441 9.01083 13.9441C9.01088 13.9441 9.01093 13.9441 9.01093 13.9441L9.4772 14.0865C9.44059 14.2624 9.54362 14.4404 9.71889 14.4939C9.90461 14.5506 10.1012 14.446 10.1578 14.2603C10.2101 14.089 10.1925 13.9076 10.1083 13.7494Z" fill="#14274E"/>
<path d="M20.6053 18.4402L18.3551 13.6585C18.2724 13.4828 18.0628 13.4074 17.8873 13.4901C17.7116 13.5728 17.6362 13.7823 17.7189 13.9579L19.9691 18.7396C20.029 18.8669 20.1554 18.9416 20.2874 18.9416C20.3376 18.9416 20.3886 18.9308 20.4369 18.9081C20.6126 18.8254 20.6879 18.6159 20.6053 18.4402Z" fill="#14274E"/>
<path d="M19.0333 19.281L16.7831 14.4993C16.7004 14.3236 16.4908 14.2482 16.3153 14.3309C16.1396 14.4136 16.0642 14.6231 16.1469 14.7987L18.3971 19.5804C18.457 19.7077 18.5834 19.7824 18.7154 19.7824C18.7656 19.7824 18.8165 19.7716 18.8649 19.7489C19.0406 19.6662 19.1159 19.4567 19.0333 19.281Z" fill="#14274E"/>
</g>
<defs>
<clipPath id="clip0_523_2581">
<rect width="24" height="24" fill="white"/>
</clipPath>
</defs>
</svg>
