<svg width="24" height="24" viewBox="0 0 24 24" fill="none" xmlns="http://www.w3.org/2000/svg">
<path d="M22.1066 12.7531L13.0532 3.69978C12.9327 3.58142 12.79 3.48809 12.6332 3.42516C12.4765 3.36223 12.3088 3.33094 12.1399 3.33311H10.7466L21.1666 13.6331L14.1466 20.7131C14.2661 20.8326 14.4079 20.9275 14.5641 20.9922C14.7202 21.0569 14.8876 21.0902 15.0566 21.0902C15.2256 21.0902 15.3929 21.0569 15.5491 20.9922C15.7052 20.9275 15.8471 20.8326 15.9666 20.7131L22.1066 14.5731C22.2261 14.4536 22.3209 14.3118 22.3856 14.1556C22.4503 13.9995 22.4836 13.8321 22.4836 13.6631C22.4836 13.4941 22.4503 13.3267 22.3856 13.1706C22.3209 13.0145 22.2261 12.8726 22.1066 12.7531Z" fill="white"/>
<path d="M5.20673 8.31337C5.69643 8.31337 6.0934 7.9164 6.0934 7.42671C6.0934 6.93701 5.69643 6.54004 5.20673 6.54004C4.71704 6.54004 4.32007 6.93701 4.32007 7.42671C4.32007 7.9164 4.71704 8.31337 5.20673 8.31337Z" fill="white"/>
<path d="M18.5199 12.7802L9.46654 3.72016C9.34768 3.59819 9.20568 3.50117 9.04885 3.43477C8.89202 3.36838 8.72351 3.33395 8.55321 3.3335H2.40654C2.06529 3.3335 1.73803 3.46906 1.49673 3.71035C1.25543 3.95165 1.11987 4.27892 1.11987 4.62016V10.7668C1.12033 10.9355 1.15415 11.1025 1.21936 11.2581C1.28457 11.4137 1.37991 11.5549 1.49987 11.6735L10.5599 20.7335C10.6794 20.853 10.8212 20.9479 10.9774 21.0125C11.1335 21.0772 11.3009 21.1105 11.4699 21.1105C11.6389 21.1105 11.8062 21.0772 11.9624 21.0125C12.1185 20.9479 12.2604 20.853 12.3799 20.7335L18.5199 14.5935C18.7593 14.3525 18.8936 14.0265 18.8936 13.6868C18.8936 13.3471 18.7593 13.0212 18.5199 12.7802ZM11.5065 19.7935L2.45987 10.7668V4.66683H8.52654L17.5799 13.6535L11.5065 19.7935Z" fill="white"/>
</svg>
