<svg width="24" height="24" viewBox="0 0 24 24" fill="none" xmlns="http://www.w3.org/2000/svg">
<path d="M21.2594 2.58947C21.2581 1.58152 20.4409 0.764771 19.4327 0.764771H11.7838C11.2993 0.764771 10.8347 0.957168 10.4921 1.29972L0.535231 11.2545C-0.178353 11.9679 -0.17841 13.1247 0.53506 13.8383L8.18399 21.4873C8.54069 21.844 9.00827 22.0224 9.47585 22.0224C9.77016 22.0224 10.0613 21.9434 10.3279 21.802C11.3039 20.9983 9.85996 22.3948 20.7244 11.5325C21.0671 11.1899 21.2596 10.7252 21.2596 10.2406C21.2596 2.48185 21.2597 3.80723 21.2594 2.58947ZM20.3462 10.2405C20.3462 10.4845 20.2511 10.714 20.0786 10.8865L10.1217 20.8415C9.94914 21.014 9.71974 21.109 9.47574 21.109C9.23173 21.109 9.00239 21.0139 8.8298 20.8415L1.18099 13.1924C1.00846 13.0199 0.913461 12.7904 0.913461 12.5465C0.913461 12.3025 1.00852 12.0731 1.18105 11.9006L11.1379 1.9457C11.3104 1.77323 11.5398 1.67823 11.7838 1.67823H19.4328C19.9364 1.67823 20.3462 2.08803 20.3462 2.59169V10.2405H20.3462Z" fill="black"/>
<path d="M23.0864 2.59171V11.1539C23.0864 11.3979 22.9913 11.6274 22.8188 11.7999L12.0269 22.5899L12.6727 23.2358L23.4646 12.4459C23.8073 12.1032 23.9998 11.6385 23.9998 11.1539V2.59171H23.0864Z" fill="black"/>
<path d="M16.2356 3.96191C15.2285 3.96191 14.4087 4.78123 14.4087 5.78884C14.4087 6.79644 15.2285 7.61576 16.2356 7.61576C17.2428 7.61576 18.0625 6.79644 18.0625 5.78884C18.0625 4.78123 17.2427 3.96191 16.2356 3.96191ZM16.2356 6.7023C15.7316 6.7023 15.3222 6.29238 15.3222 5.78884C15.3222 5.28529 15.7316 4.87538 16.2356 4.87538C16.7396 4.87538 17.1491 5.28529 17.1491 5.78884C17.1491 6.29238 16.7396 6.7023 16.2356 6.7023Z" fill="black"/>
</svg>
