<svg width="24" height="24" viewBox="0 0 24 24" fill="none" xmlns="http://www.w3.org/2000/svg">
<path d="M18.0707 13.1644C18.0156 12.9947 17.8689 12.8711 17.6923 12.8455L14.0493 12.3171L12.4192 9.01656C12.3402 8.85662 12.1773 8.75537 11.9989 8.75537H11.9988C11.8203 8.75542 11.6574 8.85676 11.5785 9.01679L9.95023 12.3182L6.30749 12.8485C6.13096 12.8742 5.98428 12.998 5.92916 13.1677C5.87408 13.3374 5.92007 13.5237 6.04789 13.6482L8.68461 16.217L8.06328 19.8453C8.03314 20.0211 8.10547 20.1989 8.24984 20.3037C8.3315 20.363 8.42815 20.3931 8.52533 20.3931C8.6 20.3931 8.67495 20.3753 8.74353 20.3392L12.0014 18.6254L15.2602 20.3375C15.4181 20.4204 15.6094 20.4066 15.7538 20.3016C15.8982 20.1967 15.9704 20.019 15.9402 19.8431L15.3169 16.2151L17.9523 13.645C18.08 13.5204 18.1259 13.3341 18.0707 13.1644ZM14.4859 15.7161C14.3755 15.8238 14.3251 15.979 14.3513 16.131L14.8555 19.0658L12.2194 17.6808C12.0828 17.6091 11.9197 17.6092 11.783 17.681L9.14764 19.0673L9.65028 16.1323C9.67634 15.9802 9.62586 15.825 9.51537 15.7174L7.38242 13.6394L10.3292 13.2105C10.4818 13.1882 10.6138 13.0923 10.682 12.9539L11.9992 10.2833L13.3178 12.9532C13.3861 13.0915 13.5181 13.1873 13.6708 13.2095L16.6178 13.637L14.4859 15.7161Z" fill="#14274E"/>
<path d="M6.53957 16.4719C6.48435 16.3022 6.33768 16.1786 6.1611 16.153L4.46151 15.9065L3.70101 14.3667C3.62203 14.2067 3.45914 14.1055 3.28073 14.1055H3.28059C3.10218 14.1055 2.93925 14.2069 2.86031 14.3669L2.10066 15.9071L0.401253 16.1545C0.224722 16.1802 0.0780501 16.3039 0.0229252 16.4736C-0.0321528 16.6433 0.0138315 16.8296 0.141659 16.9541L1.3718 18.1525L1.08192 19.8453C1.05178 20.0211 1.12411 20.1988 1.26849 20.3036C1.35014 20.3629 1.4468 20.3931 1.54397 20.3931C1.61864 20.3931 1.69355 20.3753 1.76212 20.3393L3.28204 19.5397L4.80234 20.3384C4.96031 20.4213 5.1517 20.4075 5.29598 20.3026C5.44035 20.1977 5.51259 20.0199 5.48235 19.844L5.19163 18.1515L6.42112 16.9525C6.5488 16.8279 6.59474 16.6416 6.53957 16.4719ZM4.36059 17.6524C4.2502 17.7601 4.19976 17.9153 4.22592 18.0674L4.39757 19.0667L3.49997 18.5951C3.36342 18.5234 3.20025 18.5235 3.0637 18.5952L2.16628 19.0673L2.33742 18.0678C2.36348 17.9157 2.313 17.7606 2.20251 17.6529L1.47623 16.9453L2.47964 16.7993C2.63231 16.7771 2.76426 16.6811 2.83251 16.5427L3.28101 15.6334L3.73003 16.5425C3.79832 16.6809 3.93032 16.7767 4.08299 16.7989L5.08649 16.9444L4.36059 17.6524Z" fill="#14274E"/>
<path d="M23.9771 16.4736C23.922 16.3039 23.7753 16.1802 23.5988 16.1545L21.8993 15.9071L21.1397 14.3669C21.0608 14.2069 20.8978 14.1055 20.7194 14.1055H20.7193C20.5409 14.1055 20.378 14.2067 20.299 14.3667L19.5385 15.9065L17.8389 16.153C17.6624 16.1786 17.5157 16.3022 17.4604 16.4719C17.4053 16.6416 17.4512 16.8279 17.5789 16.9525L18.8084 18.1515L18.5177 19.844C18.4875 20.0199 18.5597 20.1976 18.704 20.3026C18.8484 20.4075 19.0397 20.4214 19.1977 20.3384L20.718 19.5397L22.2379 20.3393C22.3065 20.3753 22.3814 20.3931 22.456 20.3931C22.5532 20.3931 22.6499 20.363 22.7316 20.3036C22.8759 20.1988 22.9483 20.021 22.9181 19.8452L22.6283 18.1525L23.8583 16.9541C23.9861 16.8296 24.0322 16.6433 23.9771 16.4736ZM21.7975 17.6529C21.6871 17.7606 21.6366 17.9157 21.6626 18.0678L21.8338 19.0673L20.9363 18.5952C20.868 18.5593 20.7931 18.5413 20.7181 18.5413C20.6432 18.5413 20.5683 18.5593 20.5001 18.5951L19.6025 19.0667L19.7742 18.0674C19.8003 17.9153 19.7499 17.7601 19.6395 17.6524L18.9136 16.9444L19.9171 16.7989C20.0698 16.7767 20.2018 16.6809 20.2701 16.5425L20.7191 15.6334L21.1676 16.5427C21.2358 16.6811 21.3678 16.7771 21.5205 16.7993L22.5238 16.9453L21.7975 17.6529Z" fill="#14274E"/>
<path d="M18.3315 8.24272C18.1483 8.05972 17.8516 8.05972 17.6685 8.24272L16.1216 9.78959C15.9386 9.97268 15.9386 10.2695 16.1216 10.4525C16.2132 10.544 16.3331 10.5898 16.4531 10.5898C16.5731 10.5898 16.693 10.5441 16.7846 10.4525L18.3315 8.90567C18.5145 8.72258 18.5145 8.42576 18.3315 8.24272Z" fill="#14274E"/>
<path d="M19.4391 7.13539C19.3514 7.04816 19.231 6.99805 19.1072 6.99805C18.9839 6.99805 18.863 7.0482 18.7758 7.13539C18.6886 7.22258 18.6385 7.34351 18.6385 7.4668C18.6385 7.5905 18.6886 7.71101 18.7758 7.79815C18.863 7.88581 18.9839 7.93555 19.1072 7.93555C19.2309 7.93555 19.3514 7.88586 19.4391 7.79815C19.5262 7.71101 19.576 7.59055 19.576 7.4668C19.576 7.34351 19.5262 7.22258 19.4391 7.13539Z" fill="#14274E"/>
<path d="M5.22426 7.13539C5.1366 7.04816 5.01614 6.99805 4.89239 6.99805C4.76911 6.99805 4.64864 7.0482 4.56098 7.13539C4.47375 7.22258 4.42364 7.34351 4.42364 7.4668C4.42364 7.5905 4.47379 7.71101 4.56098 7.79815C4.64864 7.88581 4.76957 7.93555 4.89239 7.93555C5.01562 7.93555 5.1366 7.88586 5.22426 7.79815C5.31145 7.71101 5.3616 7.59008 5.3616 7.4668C5.3616 7.34351 5.3114 7.22258 5.22426 7.13539Z" fill="#14274E"/>
<path d="M7.81527 9.7264L6.33154 8.24272C6.1484 8.05972 5.85168 8.05972 5.66859 8.24272C5.48554 8.42581 5.48554 8.72262 5.66859 8.90567L7.15232 10.3894C7.24387 10.4809 7.36377 10.5267 7.48377 10.5267C7.60373 10.5267 7.72368 10.4809 7.81527 10.3894C7.99832 10.2063 7.99832 9.90945 7.81527 9.7264Z" fill="#14274E"/>
<path d="M12 3.60693C11.7411 3.60693 11.5312 3.81684 11.5312 4.07568V7.25708C11.5312 7.51593 11.7411 7.72583 12 7.72583C12.2589 7.72583 12.4687 7.51593 12.4687 7.25708V4.07568C12.4687 3.81684 12.2588 3.60693 12 3.60693Z" fill="#14274E"/>
</svg>
