<svg width="25" height="25" viewBox="0 0 25 25" fill="none" xmlns="http://www.w3.org/2000/svg">
<path d="M12.5694 7.63867C9.86103 7.63867 7.70825 9.79145 7.70825 12.4998C7.70825 15.2081 9.86103 17.3609 12.5694 17.3609C15.2777 17.3609 17.4305 15.2081 17.4305 12.4998C17.4305 9.79145 15.2777 7.63867 12.5694 7.63867ZM12.5694 15.972C10.6249 15.972 9.09714 14.4442 9.09714 12.4998C9.09714 10.5553 10.6249 9.02756 12.5694 9.02756C14.5138 9.02756 16.0416 10.5553 16.0416 12.4998C16.0416 14.4442 14.5138 15.972 12.5694 15.972Z" fill="white"/>
<path d="M22.7778 10.2081L20.8334 9.58312L20.4167 8.54145L21.3889 6.73589C21.5972 6.31923 21.5278 5.76367 21.1806 5.41645L19.5139 3.74978C19.1667 3.40256 18.6111 3.33312 18.1945 3.54145L16.3889 4.51367L15.3472 4.09701L14.7222 2.15256C14.5834 1.73589 14.1667 1.38867 13.6806 1.38867H11.3195C10.8334 1.38867 10.4167 1.73589 10.3472 2.22201L9.72225 4.16645C9.30558 4.23589 8.95836 4.37478 8.61114 4.58312L6.80558 3.61089C6.38892 3.40256 5.83336 3.47201 5.48614 3.81923L3.81947 5.48589C3.47225 5.83312 3.4028 6.38867 3.61114 6.80534L4.51392 8.54145C4.37503 8.88867 4.23614 9.30534 4.09725 9.65256L2.1528 10.2776C1.73614 10.4164 1.38892 10.8331 1.38892 11.3192V13.6803C1.38892 14.1664 1.73614 14.5831 2.22225 14.722L4.16669 15.347L4.58336 16.3887L3.61114 18.1942C3.4028 18.6109 3.47225 19.1664 3.81947 19.5137L5.48614 21.1803C5.83336 21.5276 6.38892 21.597 6.80558 21.3887L8.61114 20.4164L9.6528 20.8331L10.2778 22.847C10.4167 23.2637 10.8334 23.6109 11.3195 23.6109H13.6806C14.1667 23.6109 14.5834 23.2637 14.7222 22.847L15.3472 20.8331L16.3889 20.4164L18.1945 21.3887C18.6111 21.597 19.1667 21.5276 19.5139 21.1803L21.1806 19.5137C21.5278 19.1664 21.5972 18.6109 21.3889 18.1942L20.4167 16.3887L20.8334 15.347L22.8472 14.722C23.2639 14.5831 23.6111 14.1664 23.6111 13.6803V11.3192C23.6111 10.8331 23.2639 10.347 22.7778 10.2081ZM22.2222 13.472L19.7222 14.2359L19.6528 14.5831L19.0278 16.0414L18.8195 16.3887L20.0695 18.6803L18.6806 20.0692L16.3889 18.8192L16.0417 19.0276C15.5556 19.3053 15.0695 19.5137 14.5834 19.6526L14.2361 19.722L13.4722 22.222H11.5278L10.7639 19.722L10.4167 19.6526L8.95836 19.0276L8.61114 18.8192L6.31947 20.0692L4.93058 18.6803L6.18058 16.3887L5.97225 16.0414C5.69447 15.5553 5.48614 15.0692 5.34725 14.5831L5.2778 14.2359L2.7778 13.472V11.5276L5.13892 10.8331L5.2778 10.4859C5.41669 9.93034 5.62503 9.44423 5.9028 8.95812L6.11114 8.61089L4.93058 6.31923L6.31947 4.93034L8.54169 6.18034L8.88892 5.97201C9.37503 5.69423 9.86114 5.48589 10.4167 5.347L10.7639 5.20812L11.5278 2.77756H13.4722L14.2361 5.20812L14.5834 5.347C15.0695 5.48589 15.5556 5.69423 16.0417 5.97201L16.3889 6.18034L18.6806 4.93034L20.0695 6.31923L18.8195 8.61089L19.0278 8.95812C19.3056 9.44423 19.5139 9.93034 19.6528 10.4164L19.7222 10.7637L22.2222 11.5276V13.472Z" fill="white"/>
</svg>
