<svg width="24" height="22" viewBox="0 0 24 22" fill="none" xmlns="http://www.w3.org/2000/svg">
<path d="M22.8896 18.9617H22.3204V9.2075C23.2633 9.04063 23.9819 8.21586 23.9819 7.22581V5.87225C23.9819 5.86536 23.9813 5.85861 23.9809 5.85181C23.9806 5.84802 23.9806 5.84422 23.9803 5.84042C23.979 5.82655 23.9771 5.81291 23.9743 5.7996C23.9742 5.7988 23.9739 5.79805 23.9737 5.7973C23.9709 5.7845 23.9673 5.77203 23.9632 5.7598C23.9622 5.7567 23.961 5.75361 23.9598 5.75056C23.9559 5.74006 23.9516 5.72985 23.9468 5.71986C23.9459 5.71803 23.9453 5.71611 23.9445 5.71433L22.39 2.62297V1.00606C22.39 0.588783 22.0505 0.249268 21.6332 0.249268H5.64638C5.45222 0.249268 5.29481 0.406674 5.29481 0.60083C5.29481 0.794986 5.45222 0.952393 5.64638 0.952393H21.6332C21.6628 0.952393 21.6869 0.976486 21.6869 1.00606V2.35813H2.31314V1.00606C2.31314 0.976486 2.33723 0.952393 2.36681 0.952393H4.01062C4.20478 0.952393 4.36219 0.794986 4.36219 0.60083C4.36219 0.406674 4.20478 0.249268 4.01062 0.249268H2.36681C1.94953 0.249268 1.61002 0.588783 1.61002 1.00606V2.62297L0.0555938 5.71433C0.0547031 5.71616 0.0540938 5.71808 0.05325 5.71986C0.0484219 5.72985 0.0441094 5.74006 0.0402187 5.75056C0.0390937 5.75366 0.037875 5.7567 0.0368438 5.7598C0.0327188 5.77203 0.0291094 5.7845 0.0263437 5.7973C0.0261562 5.79805 0.0259219 5.7988 0.0257344 5.7996C0.0229219 5.81295 0.0209531 5.82655 0.0197344 5.84042C0.0194062 5.84422 0.0194062 5.84802 0.0191719 5.85181C0.0187969 5.85861 0.0181406 5.86536 0.0181406 5.87225V7.22581C0.0181406 8.21581 0.736734 9.04063 1.67963 9.2075V18.9617H1.11037C0.498094 18.9617 0 19.4598 0 20.0721V21.1841C0 21.4965 0.254203 21.7507 0.566672 21.7507H23.4333C23.7458 21.7507 24 21.4965 24 21.1841V20.0721C24 19.4598 23.5019 18.9617 22.8896 18.9617ZM23.2787 7.22586C23.2787 7.94816 22.6911 8.53578 21.9688 8.53578C21.2465 8.53578 20.6589 7.94816 20.6589 7.22586V6.22386H23.2787V7.22586ZM21.8234 3.06125L23.06 5.52069H20.5546L19.6713 3.06125H21.8234ZM18.9242 3.06125L19.8075 5.52069H17.2683L16.7383 3.06125H18.9242ZM19.9558 6.22381V7.22581C19.9558 7.94811 19.3682 8.53574 18.6459 8.53574C17.9236 8.53574 17.336 7.94811 17.336 7.22581V6.22381H19.9558ZM16.019 3.06125L16.549 5.52069H13.9887L13.812 3.06125H16.019ZM16.6328 6.22381V7.22581C16.6328 7.94811 16.0452 8.53574 15.323 8.53574C14.6007 8.53574 14.013 7.94811 14.013 7.22581V6.22381H16.6328ZM10.8929 3.06125H13.107L13.2837 5.52069H10.7162L10.8929 3.06125ZM10.6901 6.22381H13.3099V7.22581C13.3099 7.94811 12.7223 8.53574 12 8.53574C11.2777 8.53574 10.6901 7.94811 10.6901 7.22581V6.22381ZM12 9.23886C12.6892 9.23886 13.2985 8.89053 13.6615 8.3608C14.0245 8.89053 14.6337 9.23886 15.323 9.23886C16.0122 9.23886 16.6215 8.89053 16.9844 8.3608C17.3474 8.89053 17.9566 9.23886 18.6459 9.23886C19.3351 9.23886 19.9444 8.89053 20.3074 8.3608C20.6072 8.79833 21.0751 9.11155 21.6173 9.2075V18.9617H8.38294V11.1493C8.38294 10.7887 8.08959 10.4954 7.72903 10.4954H3.66455C3.30398 10.4954 3.01064 10.7887 3.01064 11.1493V18.9617H2.38275V9.2075C2.92491 9.11155 3.39286 8.79833 3.69267 8.3608C4.05567 8.89053 4.66491 9.23886 5.35416 9.23886C6.04341 9.23886 6.65264 8.89053 7.01564 8.3608C7.37864 8.89053 7.98787 9.23886 8.67708 9.23886C9.36628 9.23886 9.97556 8.89053 10.3386 8.3608C10.7015 8.89053 11.3108 9.23886 12 9.23886ZM7.67981 11.1985V18.9617H3.71377V11.1985H7.67981ZM4.04419 7.22586V6.22386H6.66403V7.22586C6.66403 7.94816 6.07641 8.53578 5.35411 8.53578C4.63181 8.53578 4.04419 7.94811 4.04419 7.22586ZM7.98098 3.06125H10.188L10.0113 5.52069H7.45097L7.98098 3.06125ZM7.36716 6.22381H9.98695V7.22581C9.98695 7.94811 9.39933 8.53574 8.67703 8.53574C7.95473 8.53574 7.36716 7.94811 7.36716 7.22581V6.22381ZM7.26169 3.06125L6.73167 5.52069H4.19245L5.07577 3.06125H7.26169ZM2.17664 3.06125H4.32867L3.44536 5.52069H0.939984L2.17664 3.06125ZM0.721266 7.22586V6.22386H3.34111V7.22586C3.34111 7.94816 2.75348 8.53578 2.03119 8.53578C1.30889 8.53578 0.721266 7.94811 0.721266 7.22586ZM0.703125 21.0476V20.072C0.703125 19.8475 0.885797 19.6648 1.11037 19.6648H22.8896C23.1142 19.6648 23.2968 19.8475 23.2968 20.072V21.0476H0.703125Z" fill="black"/>
</svg>
