<svg width="24" height="24" viewBox="0 0 24 24" fill="none" xmlns="http://www.w3.org/2000/svg">
<g clip-path="url(#clip0_10_283)">
<path d="M5.15601 5.90662C4.89726 5.90662 4.68726 6.11662 4.68726 6.37537C4.68726 6.63412 4.89726 6.84412 5.15601 6.84412C5.41476 6.84412 5.62476 6.63412 5.62476 6.37537C5.62476 6.11662 5.41476 5.90662 5.15601 5.90662Z" fill="#2E8C83"/>
<path d="M22.0746 9.91546L21.3964 8.55894C21.1566 8.07932 20.6746 7.78143 20.1386 7.78143H16.2181V4.50032C16.2181 3.72496 15.5873 3.09412 14.8119 3.09412H1.4062C0.630797 3.09412 0 3.72491 0 4.50032V16.6873C0 17.4627 0.630797 18.0935 1.4062 18.0935H2.81241C2.81241 18.8132 3.08452 19.4705 3.53081 19.9684H0.46875C0.209859 19.9684 0 20.1783 0 20.4372C0 20.696 0.209859 20.9059 0.46875 20.9059H23.5303C23.7892 20.9059 23.9991 20.696 23.9991 20.4372C23.9991 20.1783 23.7892 19.9684 23.5303 19.9684H22.3432C22.7895 19.4704 23.0616 18.8132 23.0616 18.0935C23.0616 18.0668 23.0603 18.0402 23.0595 18.0135C23.6062 17.8206 23.999 17.2991 23.999 16.6873V14.0961C23.999 13.5492 24.1073 14.0598 22.0746 9.91546ZM21.3657 10.5938L22.7719 13.4062H18.093V10.5938H21.3657V10.5938ZM0.937453 14.3436H1.87491V15.2811H0.937453V14.3436ZM5.62477 19.9684C4.59094 19.9684 3.74986 19.1273 3.74986 18.0935C3.74986 17.9658 3.76252 17.8401 3.78783 17.7179C3.96412 16.8492 4.73667 16.2186 5.62477 16.2186C6.51286 16.2186 7.28545 16.8491 7.4617 17.7179C7.46184 17.7186 7.46198 17.7193 7.46213 17.7199C7.48706 17.8401 7.49967 17.9658 7.49967 18.0935C7.49967 19.1273 6.65859 19.9684 5.62477 19.9684ZM5.62477 15.2811C4.42378 15.2811 3.36389 16.0505 2.97314 17.156H1.4062C1.14773 17.156 0.937453 16.9457 0.937453 16.6873V16.2185H2.34366C2.60255 16.2185 2.81241 16.0086 2.81241 15.7498V13.8749C2.81241 13.616 2.60255 13.4061 2.34366 13.4061H0.937453V4.50032C0.937453 4.24185 1.14773 4.03157 1.4062 4.03157H14.8119C15.0704 4.03157 15.2806 4.24185 15.2806 4.50032C15.2806 4.84902 15.2806 16.0319 15.2806 17.1561H8.27616C7.8847 16.0499 6.82523 15.2811 5.62477 15.2811ZM7.71872 19.9684C8.16506 19.4704 8.43713 18.8132 8.43713 18.0935C8.79703 18.0935 17.2835 18.0935 17.4368 18.0935C17.4368 18.8132 17.7089 19.4705 18.1552 19.9684H7.71872ZM20.2492 19.9684C19.2153 19.9684 18.3743 19.1273 18.3743 18.0935C18.3743 17.9658 18.3869 17.8401 18.4122 17.7179C18.5885 16.8492 19.3611 16.2186 20.2492 16.2186C21.1372 16.2186 21.9098 16.8491 22.0861 17.7179C22.0862 17.7186 22.0864 17.7193 22.0865 17.7199C22.1115 17.8401 22.1241 17.9658 22.1241 18.0935C22.1241 19.1273 21.283 19.9684 20.2492 19.9684ZM23.0616 16.6873C23.0616 16.8432 22.9847 16.9812 22.8673 17.0665C22.4515 16.0086 21.417 15.2811 20.2492 15.2811C19.0482 15.2811 17.9883 16.0505 17.5975 17.1561H16.218V8.71888H20.1385C20.3172 8.71888 20.4779 8.81826 20.5578 8.97815L20.8969 9.65633H17.6243C17.3654 9.65633 17.1555 9.86624 17.1555 10.1251V13.8749C17.1555 14.1338 17.3654 14.3437 17.6243 14.3437H23.0616V16.6873Z" fill="#2E8C83"/>
<path d="M12.937 5.90662H7.03101C6.77212 5.90662 6.56226 6.11652 6.56226 6.37537C6.56226 6.63421 6.77212 6.84412 7.03101 6.84412H12.937C13.1959 6.84412 13.4058 6.63421 13.4058 6.37537C13.4058 6.11652 13.1959 5.90662 12.937 5.90662Z" fill="#2E8C83"/>
<path d="M12.9371 7.78143H8.90601C8.64712 7.78143 8.43726 7.99134 8.43726 8.25018C8.43726 8.50903 8.64712 8.71893 8.90601 8.71893H12.9371C13.196 8.71893 13.4059 8.50903 13.4059 8.25018C13.4059 7.99134 13.196 7.78143 12.9371 7.78143Z" fill="#2E8C83"/>
<path d="M20.2492 17.1561C19.7323 17.1561 19.3118 17.5766 19.3118 18.0935C19.3118 18.6105 19.7323 19.031 20.2492 19.031C20.7662 19.031 21.1867 18.6104 21.1867 18.0935C21.1867 17.5766 20.7662 17.1561 20.2492 17.1561Z" fill="#2E8C83"/>
<path d="M5.62471 17.1561C5.10777 17.1561 4.68726 17.5766 4.68726 18.0935C4.68726 18.6105 5.10782 19.031 5.62471 19.031C6.14165 19.031 6.56216 18.6104 6.56216 18.0935C6.56216 17.5766 6.14165 17.1561 5.62471 17.1561Z" fill="#2E8C83"/>
</g>
<defs>
<clipPath id="clip0_10_283">
<rect width="24" height="24" fill="white"/>
</clipPath>
</defs>
</svg>