<svg width="25" height="25" viewBox="0 0 25 25" fill="none" xmlns="http://www.w3.org/2000/svg">
<path d="M12.4793 8.22911C13.0162 8.22911 13.4515 7.79383 13.4515 7.25689C13.4515 6.71995 13.0162 6.28467 12.4793 6.28467C11.9424 6.28467 11.5071 6.71995 11.5071 7.25689C11.5071 7.79383 11.9424 8.22911 12.4793 8.22911Z" fill="white"/>
<path d="M14.5833 17.3609H13.1944V9.7915H11.1111C10.9269 9.7915 10.7502 9.86467 10.62 9.9949C10.4898 10.1251 10.4166 10.3018 10.4166 10.4859C10.4166 10.6701 10.4898 10.8468 10.62 10.977C10.7502 11.1072 10.9269 11.1804 11.1111 11.1804H11.8055V17.3609H10.4166C10.2324 17.3609 10.0558 17.4341 9.92557 17.5643C9.79533 17.6946 9.72217 17.8712 9.72217 18.0554C9.72217 18.2396 9.79533 18.4162 9.92557 18.5464C10.0558 18.6767 10.2324 18.7498 10.4166 18.7498H14.5833C14.7675 18.7498 14.9441 18.6767 15.0743 18.5464C15.2046 18.4162 15.2777 18.2396 15.2777 18.0554C15.2777 17.8712 15.2046 17.6946 15.0743 17.5643C14.9441 17.4341 14.7675 17.3609 14.5833 17.3609Z" fill="white"/>
<path d="M12.5 23.6109C10.3025 23.6109 8.15424 22.9592 6.32703 21.7383C4.49982 20.5174 3.07568 18.7821 2.2347 16.7518C1.39373 14.7215 1.17369 12.4875 1.60242 10.3321C2.03114 8.17677 3.08937 6.19696 4.64329 4.64305C6.19721 3.08913 8.17702 2.0309 10.3324 1.60217C12.4877 1.17345 14.7218 1.39349 16.7521 2.23446C18.7824 3.07543 20.5177 4.49957 21.7386 6.32679C22.9595 8.154 23.6111 10.3022 23.6111 12.4998C23.6111 15.4466 22.4405 18.2728 20.3568 20.3565C18.273 22.4403 15.4469 23.6109 12.5 23.6109ZM12.5 2.77757C10.5772 2.77757 8.69747 3.34776 7.09865 4.41606C5.49984 5.48435 4.25372 7.00275 3.51787 8.77925C2.78202 10.5558 2.58949 12.5106 2.96462 14.3965C3.33975 16.2824 4.26571 18.0148 5.62538 19.3744C6.98506 20.7341 8.71739 21.6601 10.6033 22.0352C12.4892 22.4103 14.4441 22.2178 16.2206 21.4819C17.9971 20.7461 19.5155 19.5 20.5838 17.9012C21.6521 16.3024 22.2223 14.4227 22.2223 12.4998C22.2223 9.92129 21.198 7.44841 19.3747 5.62514C17.5514 3.80187 15.0785 2.77757 12.5 2.77757Z" fill="white"/>
</svg>
